<svg width="20" height="19" viewBox="0 0 20 19" fill="none" xmlns="http://www.w3.org/2000/svg">
<g clip-path="url(#clip0_241_76)">
<path d="M7.84087 17.417H12.1591M4.20928 10.2514L2.86028 11.6012C2.61393 11.8474 2.41849 12.1397 2.28513 12.4614C2.15176 12.7831 2.08308 13.1279 2.08301 13.4762C2.08301 14.0617 2.55801 14.5367 3.14442 14.5367H16.8564C17.4419 14.5367 17.9169 14.0617 17.9169 13.4762C17.9168 13.1279 17.8482 12.7831 17.7148 12.4614C17.5814 12.1397 17.386 11.8474 17.1396 11.6012L15.7906 10.2514C15.5519 10.0128 15.3625 9.72952 15.2333 9.41774C15.1041 9.10596 15.0376 8.77177 15.0376 8.43427V6.62064C15.0376 5.95909 14.9073 5.30402 14.6541 4.69283C14.4009 4.08165 14.0299 3.52631 13.5621 3.05852C13.0943 2.59074 12.539 2.21967 11.9278 1.96651C11.3166 1.71335 10.6615 1.58305 9.99996 1.58305C9.33834 1.58305 8.6832 1.71338 8.07196 1.96659C7.46071 2.21981 6.90534 2.59095 6.43754 3.05883C5.96975 3.5267 5.5987 4.08214 5.34559 4.69343C5.09248 5.30472 4.96226 5.95988 4.96237 6.6215V8.43514C4.96237 9.11741 4.69119 9.77032 4.20928 10.2522V10.2514Z" stroke="#74767E" stroke-width="1.72727" stroke-linecap="round" stroke-linejoin="round"/>
</g>
<defs>
<clipPath id="clip0_241_76">
<rect width="19" height="19" fill="white" transform="translate(0.5)"/>
</clipPath>
</defs>
</svg>
