<svg width="24" height="24" viewBox="0 0 24 24" fill="none" xmlns="http://www.w3.org/2000/svg">
<g clip-path="url(#clip0_132_88)">
<path d="M12.75 15C12.336 15 12 14.328 12 13.5C12 12.672 12.336 12 12.75 12C13.164 12 13.5 12.672 13.5 13.5C13.5 14.328 13.164 15 12.75 15Z" fill="black"/>
<path d="M16.242 0.182972C16.3231 0.253477 16.3881 0.340593 16.4327 0.438419C16.4772 0.536245 16.5001 0.642495 16.5 0.749972V1.49997H17.25C17.8467 1.49997 18.419 1.73703 18.841 2.15898C19.2629 2.58094 19.5 3.15324 19.5 3.74997V22.5H21.75C21.9489 22.5 22.1397 22.579 22.2803 22.7196C22.421 22.8603 22.5 23.0511 22.5 23.25C22.5 23.4489 22.421 23.6397 22.2803 23.7803C22.1397 23.921 21.9489 24 21.75 24H2.25C2.05109 24 1.86032 23.921 1.71967 23.7803C1.57902 23.6397 1.5 23.4489 1.5 23.25C1.5 23.0511 1.57902 22.8603 1.71967 22.7196C1.86032 22.579 2.05109 22.5 2.25 22.5H4.5V2.24997C4.50003 2.06927 4.56529 1.89465 4.6838 1.75824C4.8023 1.62182 4.96608 1.53277 5.145 1.50747L15.645 0.00747218C15.7513 -0.0077049 15.8596 0.000109123 15.9626 0.0303861C16.0656 0.0606631 16.1608 0.112697 16.242 0.182972ZM17.25 2.99997H16.5V22.5H18V3.74997C18 3.55106 17.921 3.36029 17.7803 3.21964C17.6397 3.07899 17.4489 2.99997 17.25 2.99997ZM6 2.90097V22.5H15V1.61547L6 2.90097Z" fill="black"/>
</g>
<defs>
<clipPath id="clip0_132_88">
<rect width="24" height="24" fill="white"/>
</clipPath>
</defs>
</svg>
