<svg width="20" height="20" viewBox="0 0 20 20" fill="none" xmlns="http://www.w3.org/2000/svg">
<g clip-path="url(#clip0_241_84)">
<path fill-rule="evenodd" clip-rule="evenodd" d="M10 2.4C5.80264 2.4 2.4 5.80264 2.4 10C2.4 14.1973 5.80264 17.6 10 17.6C14.1973 17.6 17.6 14.1973 17.6 10C17.6 5.80264 14.1973 2.4 10 2.4ZM0.5 10C0.5 4.75329 4.75329 0.5 10 0.5C15.2467 0.5 19.5 4.75329 19.5 10C19.5 15.2467 15.2467 19.5 10 19.5C4.75329 19.5 0.5 15.2467 0.5 10ZM8.87096 7.17071C8.65596 7.46933 8.575 7.85619 8.575 8.1H6.675C6.675 7.55215 6.83154 6.75151 7.32904 6.06054C7.86142 5.32112 8.74037 4.775 10 4.775C11.5903 4.775 12.7335 5.70155 13.1336 6.9065C13.5262 8.08934 13.1751 9.50004 11.952 10.3154C11.2768 10.7656 11.1166 10.9938 11.0513 11.1461C10.9664 11.3443 10.95 11.5973 10.95 12.375H9.05C9.05 12.3403 9.04995 12.3055 9.0499 12.2705C9.04907 11.6532 9.04818 10.9967 9.30493 10.3976C9.59592 9.71871 10.1482 9.23443 10.898 8.73455C11.3517 8.4321 11.4756 7.94281 11.3303 7.5051C11.1923 7.08952 10.7847 6.675 10 6.675C9.35963 6.675 9.05108 6.92054 8.87096 7.17071ZM10.95 13.325V15.225H9.05V13.325H10.95Z" fill="#74767E"/>
</g>
<defs>
<clipPath id="clip0_241_84">
<rect width="19" height="19" fill="white" transform="matrix(-1 0 0 1 19.5 0.5)"/>
</clipPath>
</defs>
</svg>
