<svg width="400" height="240" viewBox="0 0 400 240" fill="none" xmlns="http://www.w3.org/2000/svg">
<path d="M256.709 114.867H273V181.999H256.709V114.867Z" stroke="#232426" stroke-width="1.5" stroke-miterlimit="10"/>
<path d="M240.435 114.867H256.725V181.999H240.435V114.867Z" stroke="#232426" stroke-width="1.5" stroke-miterlimit="10"/>
<path d="M229.574 114.867H240.434V181.999H229.574V114.867Z" fill="#232426" stroke="#232426" stroke-width="1.5" stroke-miterlimit="10"/>
<path d="M199 182H211.483L228.304 114.835L217.813 112L199 182Z" fill="#232426" stroke="#232426" stroke-width="1.5" stroke-miterlimit="10"/>
<path d="M248.579 121.892V174.959" stroke="#232426" stroke-width="1.5" stroke-miterlimit="10"/>
<path d="M273 170.191H256.725" stroke="#232426" stroke-width="1.5" stroke-miterlimit="10"/>
<path d="M69 182.896L331 182.896V189.896L69 189.896V182.896Z" stroke="#232426" stroke-width="1.5" stroke-miterlimit="10"/>
<path d="M298 182C284.745 182 274 171.255 274 158C274 144.745 284.745 134 298 134C311.255 134 322 144.745 322 158C322 171.255 311.255 182 298 182Z" stroke="#232426" stroke-width="1.5" stroke-miterlimit="10"/>
<path d="M276.31 168.269C279.069 173.963 283.966 178.337 289.934 180.439C295.902 182.541 302.459 182.201 308.178 179.493C313.896 176.786 318.315 171.929 320.471 165.98C322.627 160.031 322.346 153.472 319.69 147.729" fill="#232426"/>
<path d="M276.31 168.269C279.069 173.963 283.966 178.337 289.934 180.439C295.902 182.541 302.459 182.201 308.178 179.493C313.896 176.786 318.315 171.929 320.471 165.98C322.627 160.031 322.346 153.472 319.69 147.729" stroke="#232426" stroke-width="1.5" stroke-miterlimit="10"/>
<path d="M108.712 160.145H85.736V171.022C85.732 172.546 86.027 174.056 86.603 175.464C87.179 176.873 88.025 178.153 89.093 179.232C90.16 180.311 91.428 181.167 92.824 181.751C94.22 182.334 95.716 182.635 97.227 182.635C100.275 182.635 103.198 181.414 105.353 179.241C107.508 177.068 108.719 174.121 108.719 171.048V160.145H108.712Z" fill="#232426"/>
<path d="M97.2271 160.145C97.7681 152.346 104.472 137.737 107.437 135.203C110.403 132.669 110.063 133.701 109.894 135.691C109.724 137.68 109.492 147.177 105.665 152.872C101.839 158.568 101.047 160.056 101.047 160.056" stroke="#0E0E0F" stroke-width="1.2" stroke-miterlimit="10"/>
<path d="M99.1299 151.732C99.7899 148.266 101.732 134.512 100.588 128.925C99.4449 123.337 100.016 122.83 99.1299 120.872C98.2449 118.915 96.2529 129.615 95.6249 134.278C94.9959 138.941 94.5939 155.387 95.6249 160.139" stroke="#0E0E0F" stroke-width="1.2" stroke-miterlimit="10"/>
<path d="M95.116 155.121C94.142 148.267 91.742 147.063 89.977 142.919C88.211 138.776 87.803 136.242 87.237 135.951C86.672 135.659 83.694 144.231 85.409 148.032C87.124 151.833 92.597 155.045 92.54 160.139" stroke="#0E0E0F" stroke-width="1.2" stroke-miterlimit="10"/>
<path d="M95.531 135.069C94.941 130.546 93.112 126.459 92.484 124.673C91.856 122.886 90.26 129.564 90.718 133.308C91.177 137.052 89.631 142.716 91.045 145.035" stroke="#0E0E0F" stroke-width="1.2" stroke-miterlimit="10"/>
<path d="M158.561 95.1029C160.932 90.9287 169.696 91.1606 169.994 99.4911C170.293 107.821 158.561 114.439 158.561 114.439C158.561 114.439 146.707 107.839 147.006 99.4911C147.304 91.1428 156.191 90.9287 158.561 95.1029Z" fill="#3E79DE"/>
<path d="M128 73.4395L189 73.4395V134.439H128V73.4395Z" stroke="#0E0E0F" stroke-width="1.5" stroke-miterlimit="10"/>
</svg>
