<svg width="93" height="31" viewBox="0 0 93 31" fill="none" xmlns="http://www.w3.org/2000/svg">
<path fill-rule="evenodd" clip-rule="evenodd" d="M77.0528 6C77.7026 5.36875 78.1222 5 78.1222 5C78.2702 5.45333 78.4376 5.88583 78.6244 6.2975C79.7237 8.73 81.4307 10.485 82.9522 12.0475C84.7256 13.87 86.2444 15.4312 86.2444 17.5C86.2444 19.4891 85.3887 21.3968 83.8655 22.8033C82.3423 24.2098 80.2764 25 78.1222 25C75.9681 25 73.9022 24.2098 72.3789 22.8033C70.8557 21.3968 70 19.4891 70 17.5C70 13.335 74.8463 8.14625 77.0528 6ZM77.6119 7.27625C76.7422 8.14463 75.916 9.04933 75.136 9.9875C74.1532 11.175 73.192 12.4975 72.4827 13.825C71.7652 15.1663 71.3537 16.4225 71.3537 17.5C71.3537 17.5 74.738 19.375 78.1222 18.125C81.5065 16.875 84.8907 17.5 84.8907 17.5C84.8907 15.9987 83.8132 14.8038 81.9383 12.875L81.8977 12.835C80.4912 11.3875 78.7991 9.65125 77.6119 7.27625Z" fill="#3674B5"/>
<path d="M92.25 15C92.25 22.8701 85.8701 29.25 78 29.25C70.1299 29.25 63.75 22.8701 63.75 15C63.75 7.12994 70.1299 0.75 78 0.75C85.8701 0.75 92.25 7.12994 92.25 15Z" stroke="#3674B5" stroke-width="1.5"/>
<path d="M39.4858 16.1875C38.9688 16.1875 38.5256 16.0057 38.1562 15.642C37.7869 15.2784 37.6051 14.8352 37.6108 14.3125C37.6051 13.8011 37.7869 13.3636 38.1562 13C38.5256 12.6364 38.9688 12.4545 39.4858 12.4545C39.9858 12.4545 40.4205 12.6364 40.7898 13C41.1648 13.3636 41.3551 13.8011 41.3608 14.3125C41.3551 14.6591 41.2642 14.9744 41.0881 15.2585C40.9176 15.5426 40.6903 15.7699 40.4062 15.9403C40.1278 16.1051 39.821 16.1875 39.4858 16.1875ZM46.4467 16.1875C45.9297 16.1875 45.4865 16.0057 45.1172 15.642C44.7479 15.2784 44.5661 14.8352 44.5717 14.3125C44.5661 13.8011 44.7479 13.3636 45.1172 13C45.4865 12.6364 45.9297 12.4545 46.4467 12.4545C46.9467 12.4545 47.3814 12.6364 47.7507 13C48.1257 13.3636 48.3161 13.8011 48.3217 14.3125C48.3161 14.6591 48.2251 14.9744 48.049 15.2585C47.8786 15.5426 47.6513 15.7699 47.3672 15.9403C47.0888 16.1051 46.782 16.1875 46.4467 16.1875ZM53.4077 16.1875C52.8906 16.1875 52.4474 16.0057 52.0781 15.642C51.7088 15.2784 51.527 14.8352 51.5327 14.3125C51.527 13.8011 51.7088 13.3636 52.0781 13C52.4474 12.6364 52.8906 12.4545 53.4077 12.4545C53.9077 12.4545 54.3423 12.6364 54.7116 13C55.0866 13.3636 55.277 13.8011 55.2827 14.3125C55.277 14.6591 55.1861 14.9744 55.0099 15.2585C54.8395 15.5426 54.6122 15.7699 54.3281 15.9403C54.0497 16.1051 53.7429 16.1875 53.4077 16.1875Z" fill="#3674B5"/>
<path d="M29.25 16C29.25 23.8701 22.8701 30.25 15 30.25C7.12994 30.25 0.75 23.8701 0.75 16C0.75 8.12994 7.12994 1.75 15 1.75C22.8701 1.75 29.25 8.12994 29.25 16Z" stroke="#3674B5" stroke-width="1.5"/>
</svg>
