<svg width="685" height="455" viewBox="0 0 685 455" fill="none" xmlns="http://www.w3.org/2000/svg">
<g clip-path="url(#clip0_747_401)">
<path d="M245.71 261.856C269.185 220.582 313.964 188.89 361.367 191.943C326.401 229.947 306.012 279.088 303.807 330.671C303.028 350.568 304.236 372.778 291.018 387.677C282.794 396.947 270.224 401.436 257.864 402.378C245.504 403.32 233.146 401.088 220.951 398.865L217.993 399.773C216.867 352.309 222.235 303.131 245.71 261.856Z" fill="#F0F0F0"/>
<path d="M361.437 192.937C326.383 209.803 296.494 237.972 278.146 272.325C274.179 279.753 270.801 287.632 269.328 295.963C267.854 304.298 268.884 312.232 271.732 320.148C274.336 327.385 277.838 334.486 278.636 342.23C279.478 350.392 276.473 358.024 271.064 364.081C264.447 371.492 255.559 376.084 246.712 380.273C236.889 384.924 226.613 389.599 219.655 398.28C218.812 399.332 217.229 397.963 218.07 396.913C230.175 381.81 250.896 378.971 265.264 366.805C271.969 361.128 277.002 353.397 276.684 344.339C276.407 336.418 272.802 329.092 270.102 321.787C267.267 314.117 265.853 306.405 266.87 298.227C267.91 289.862 270.986 281.834 274.746 274.338C283.224 257.433 294.827 241.912 308.119 228.496C323.396 213.074 341.199 200.378 360.759 190.957C361.97 190.374 362.64 192.358 361.437 192.937Z" fill="white"/>
<path d="M283.521 260.844C278.147 256.917 274.345 251.208 272.793 244.738C271.242 238.267 272.042 231.456 275.051 225.521C275.664 224.322 277.557 225.218 276.943 226.418C274.131 231.94 273.386 238.285 274.843 244.307C276.3 250.33 279.863 255.633 284.889 259.26C285.98 260.05 284.606 261.63 283.521 260.844Z" fill="white"/>
<path d="M269.928 316.652C283.393 314.686 295.623 307.719 304.177 297.14C305.024 296.092 306.607 297.46 305.762 298.508C296.839 309.499 284.098 316.723 270.081 318.739C268.745 318.93 268.599 316.842 269.928 316.652Z" fill="white"/>
<path d="M324.43 215.649C326.192 217.602 328.412 219.086 330.891 219.969C333.369 220.852 336.028 221.107 338.629 220.709C339.962 220.501 340.107 222.589 338.782 222.796C335.907 223.222 332.971 222.938 330.23 221.968C327.49 220.998 325.029 219.373 323.062 217.233C322.86 217.047 322.736 216.791 322.716 216.517C322.696 216.243 322.781 215.971 322.954 215.757C323.136 215.549 323.393 215.42 323.67 215.4C323.946 215.38 324.219 215.469 324.43 215.649Z" fill="white"/>
<path d="M455.683 322.149C454.854 322.303 454.026 322.456 453.189 322.626C442.059 324.748 431.119 327.77 420.478 331.663C419.651 331.951 418.816 332.255 417.999 332.567C392.463 342.219 368.942 356.525 348.631 374.76C340.555 382.023 333.044 389.89 326.163 398.292C316.66 409.896 307.281 423.234 294.863 430.8C293.576 431.604 292.241 432.328 290.865 432.967L219.33 403.31C219.202 403.161 219.065 403.028 218.936 402.879L216.025 401.825C216.35 401.367 216.697 400.899 217.021 400.441C217.208 400.174 217.411 399.914 217.599 399.648C217.729 399.472 217.859 399.297 217.966 399.131C218.009 399.072 218.053 399.014 218.089 398.972C218.197 398.806 218.314 398.663 218.414 398.514C220.344 395.891 222.295 393.278 224.269 390.674C224.276 390.658 224.276 390.658 224.298 390.648C239.385 370.843 256.259 352.123 275.439 336.558C276.016 336.09 276.599 335.605 277.209 335.15C285.893 328.182 295.133 321.935 304.836 316.472C310.158 313.497 315.628 310.794 321.224 308.372C335.695 302.143 351.057 298.227 366.746 296.768C398.021 293.866 429.878 300.993 453.865 320.631C454.478 321.133 455.076 321.63 455.683 322.149Z" fill="#F0F0F0"/>
<path d="M455.146 322.99C416.998 315.362 376.165 319.867 340.821 336.255C333.18 339.798 325.737 344.057 319.542 349.822C313.345 355.59 309.387 362.544 306.893 370.579C304.613 377.924 303.131 385.701 299.104 392.365C294.859 399.388 287.863 403.674 279.896 405.255C270.148 407.19 260.286 405.509 250.699 403.529C240.054 401.332 229.032 398.881 218.248 401.625C216.941 401.958 216.502 399.912 217.806 399.58C236.569 394.805 254.823 405.007 273.624 403.94C282.397 403.442 291.073 400.298 296.275 392.874C300.825 386.383 302.36 378.364 304.604 370.907C306.961 363.077 310.478 356.068 316.216 350.151C322.085 344.097 329.377 339.539 336.894 335.816C353.847 327.42 372.461 322.01 391.155 319.297C412.642 316.176 434.505 316.753 455.797 321.001C457.115 321.264 456.455 323.251 455.146 322.99Z" fill="white"/>
<path d="M352.028 330.322C350.103 323.953 350.506 317.107 353.165 311.007C355.824 304.907 360.566 299.95 366.544 297.022C367.755 296.434 368.727 298.288 367.514 298.877C361.942 301.593 357.526 306.211 355.061 311.896C352.597 317.582 352.247 323.96 354.074 329.881C354.47 331.168 352.421 331.602 352.028 330.322Z" fill="white"/>
<path d="M307.558 366.702C319.494 373.235 333.455 375.031 346.657 371.733C347.965 371.405 348.405 373.451 347.099 373.778C333.354 377.185 318.829 375.286 306.423 368.461C305.241 367.809 306.382 366.054 307.558 366.702Z" fill="white"/>
<path d="M411.917 318.854C412.148 321.474 413.026 323.995 414.473 326.192C415.92 328.388 417.89 330.191 420.206 331.439C421.396 332.075 420.253 333.829 419.071 333.197C416.519 331.807 414.345 329.813 412.741 327.39C411.137 324.967 410.152 322.188 409.87 319.296C409.821 319.025 409.876 318.746 410.025 318.515C410.174 318.285 410.406 318.119 410.672 318.052C410.944 317.995 411.227 318.047 411.46 318.198C411.692 318.348 411.857 318.584 411.917 318.854Z" fill="white"/>
<path d="M319.414 371.076C309.396 322.661 296.873 306.519 296.873 306.519L292.089 302.811L286.336 298.344L286.363 297.77L284.999 297.306L284.678 297.057L284.153 296.654L284.069 296.745L283.89 296.93L257.856 288.085L224.828 276.872L209.534 257.002C207.043 253.766 203.836 251.151 200.165 249.361C196.493 247.571 192.457 246.655 188.372 246.685L139.527 247.047C132.923 247.095 126.575 249.612 121.733 254.101L89.6282 283.866L39.6025 307.746L39.518 307.661L38.9927 308.036L31.2633 311.73L31.5823 313.39L26.7982 316.84C26.7982 316.84 14.2754 331.86 4.2571 376.91C1.70856 388.373 0.454074 412.962 0.00127247 443.262C-0.0214717 444.795 0.260887 446.317 0.831923 447.74C1.40296 449.163 2.25129 450.458 3.32757 451.55C4.40386 452.642 5.68664 453.51 7.10132 454.102C8.51599 454.694 10.0343 454.999 11.5681 455H278.765L312.115 455C313.648 454.999 315.165 454.694 316.579 454.102C317.993 453.511 319.275 452.645 320.351 451.554C321.427 450.463 322.275 449.169 322.847 447.748C323.419 446.327 323.703 444.806 323.682 443.274C323.24 410.303 321.986 383.507 319.414 371.076Z" fill="#3F3D56"/>
<path d="M353.696 42.2222C343.301 42.2222 333.331 46.3497 325.98 53.6967C318.63 61.0438 314.5 71.0085 314.5 81.3988C314.5 91.7891 318.63 101.754 325.98 109.101C333.331 116.448 343.301 120.575 353.696 120.575H645.803C656.199 120.575 666.169 116.448 673.519 109.101C680.87 101.754 685 91.7891 685 81.3988C685 71.0085 680.87 61.0438 673.519 53.6967C666.169 46.3497 656.199 42.2222 645.803 42.2222H353.696Z" fill="#E5E5E5"/>
<path d="M353.696 50.1509C345.405 50.1509 337.453 53.4431 331.59 59.3032C325.726 65.1634 322.433 73.1114 322.433 81.3989C322.433 89.6864 325.726 97.6345 331.59 103.495C337.453 109.355 345.405 112.647 353.696 112.647H645.803C654.095 112.647 662.047 109.355 667.91 103.495C673.773 97.6345 677.067 89.6864 677.067 81.3989C677.067 73.1114 673.773 65.1634 667.91 59.3032C662.047 53.4431 654.095 50.1509 645.803 50.1509H353.696Z" fill="white"/>
<path d="M171.62 228.345C206.962 228.345 235.612 199.709 235.612 164.385C235.612 129.062 206.962 100.426 171.62 100.426C136.279 100.426 107.629 129.062 107.629 164.385C107.629 199.709 136.279 228.345 171.62 228.345Z" fill="#9E616A"/>
<path d="M155.25 225.213C154.976 224.611 154.704 224.008 154.432 223.402C154.536 223.405 154.64 223.42 154.745 223.423L155.25 225.213Z" fill="#2F2E41"/>
<path d="M105.849 103.335C109.085 100.755 112.868 98.3802 117.006 98.5137C121.144 98.647 125.34 102.382 124.483 106.431C132.083 92.98 144.181 82.6349 158.653 77.2112C173.125 71.7874 189.045 71.6317 203.62 76.7714C213.905 80.398 223.99 87.6535 226.353 98.295C226.959 101.027 227.09 104.022 228.796 106.24C230.948 109.037 235.064 109.67 238.454 108.686C238.488 108.676 238.522 108.666 238.556 108.656C239.128 108.46 239.746 108.441 240.33 108.601C240.914 108.76 241.436 109.091 241.83 109.551C242.223 110.01 242.47 110.577 242.537 111.178C242.605 111.779 242.49 112.386 242.209 112.922L239.299 118.346C242.967 119.163 246.779 119.082 250.409 118.11C251.012 117.952 251.649 117.984 252.233 118.202C252.817 118.421 253.319 118.814 253.671 119.329C254.022 119.843 254.205 120.454 254.196 121.077C254.186 121.7 253.984 122.305 253.617 122.809C244.021 135.976 227.991 144.479 211.632 144.379C200.005 144.308 188.258 140.303 176.942 142.975C172.565 144.009 168.474 146.009 164.971 148.829C161.468 151.649 158.641 155.217 156.697 159.272C154.753 163.326 153.743 167.764 153.739 172.26C153.735 176.756 154.739 181.196 156.676 185.254C153.199 181.453 146.479 182.353 142.923 186.079C139.368 189.805 138.447 195.367 138.805 200.504C139.353 208.36 142.433 215.763 145.68 222.969C118.459 222.112 92.7118 203.026 84.0454 177.213C75.3426 151.291 84.4634 120.386 105.849 103.335Z" fill="#2F2E41"/>
<path opacity="0.2" d="M62.9844 356.459L80.9326 454.063L91.7019 455L62.9844 356.459Z" fill="black"/>
<path opacity="0.2" d="M260.687 349.099L242.739 453.992L231.97 455L260.687 349.099Z" fill="black"/>
<path d="M121.157 70.4868C117.716 71.9231 114.125 70.349 112.619 66.7444C111.09 63.0846 112.518 59.3695 116.015 57.9102C119.512 56.4508 123.039 58.0287 124.592 61.7475C126.122 65.4105 124.71 69.0041 121.157 70.4868ZM114.565 50.7066L111.829 51.8486C111.146 52.1305 110.381 52.1457 109.687 51.8912C108.993 51.6367 108.419 51.131 108.08 50.4742L107.945 50.2096C105.001 44.9026 104.663 38.4527 106.948 31.0492C109.065 24.4078 109.944 19.737 108.176 15.5054C106.132 10.613 101.767 9.0804 96.2014 11.3005C94.0427 12.2014 93.3558 12.1871 91.657 13.8714C91.2875 14.2423 90.847 14.535 90.3619 14.732C89.8767 14.929 89.3569 15.0264 88.8333 15.0183C88.3271 15.0124 87.8273 14.9046 87.3637 14.7014C86.9001 14.4983 86.4822 14.2038 86.1349 13.8358C85.4658 13.1264 85.0909 12.1897 85.086 11.2149C85.0811 10.24 85.4465 9.29955 86.1084 8.5835C88.9638 5.59598 92.4077 3.23248 96.2229 1.64213C108.182 -3.34884 114.202 4.01961 116.956 10.6137C119.651 17.0634 118.135 23.0477 115.7 30.798C113.659 37.238 113.778 42.0099 116.096 46.7547C116.263 47.1134 116.357 47.5022 116.37 47.8978C116.383 48.2934 116.316 48.6876 116.173 49.0567C116.03 49.4258 115.814 49.7622 115.538 50.0457C115.262 50.3293 114.931 50.5541 114.565 50.7066Z" fill="#6C63FF"/>
<path d="M418.219 100.084H360.101C359.916 100.085 359.733 100.05 359.562 99.9798C359.391 99.91 359.236 99.8071 359.105 99.6771C358.974 99.547 358.87 99.3924 358.799 99.222C358.728 99.0516 358.691 98.8689 358.691 98.6843C358.691 98.4998 358.728 98.3171 358.799 98.1467C358.87 97.9763 358.974 97.8217 359.105 97.6916C359.236 97.5616 359.391 97.4587 359.562 97.389C359.733 97.3192 359.916 97.2839 360.101 97.2852H418.219C418.589 97.2877 418.942 97.4362 419.203 97.6983C419.463 97.9605 419.61 98.3149 419.61 98.6843C419.61 99.0538 419.463 99.4082 419.203 99.6704C418.942 99.9325 418.589 100.081 418.219 100.084Z" fill="#6C63FF"/>
<path d="M491.946 100.55H433.827C433.643 100.551 433.46 100.516 433.289 100.446C433.118 100.376 432.962 100.273 432.831 100.143C432.7 100.013 432.596 99.8587 432.525 99.6883C432.454 99.5179 432.418 99.3352 432.418 99.1507C432.418 98.9661 432.454 98.7834 432.525 98.613C432.596 98.4426 432.7 98.288 432.831 98.1579C432.962 98.0279 433.118 97.925 433.289 97.8553C433.46 97.7855 433.643 97.7502 433.827 97.7515H491.946C492.13 97.7502 492.314 97.7855 492.484 97.8553C492.655 97.925 492.811 98.0279 492.942 98.1579C493.073 98.288 493.177 98.4426 493.248 98.613C493.319 98.7834 493.355 98.9661 493.355 99.1507C493.355 99.3352 493.319 99.5179 493.248 99.6883C493.177 99.8587 493.073 100.013 492.942 100.143C492.811 100.273 492.655 100.376 492.484 100.446C492.314 100.516 492.13 100.551 491.946 100.55Z" fill="#6C63FF"/>
<path d="M565.673 101.016H507.554C507.185 101.014 506.831 100.865 506.571 100.603C506.31 100.341 506.164 99.9864 506.164 99.617C506.164 99.2475 506.31 98.8931 506.571 98.6309C506.831 98.3688 507.185 98.2203 507.554 98.2178H565.673C565.857 98.2166 566.041 98.2518 566.211 98.3216C566.382 98.3913 566.538 98.4942 566.669 98.6242C566.8 98.7543 566.904 98.9089 566.975 99.0793C567.046 99.2497 567.082 99.4324 567.082 99.617C567.082 99.8015 567.046 99.9842 566.975 100.155C566.904 100.325 566.8 100.48 566.669 100.61C566.538 100.74 566.382 100.843 566.211 100.912C566.041 100.982 565.858 101.017 565.673 101.016Z" fill="#6C63FF"/>
<path d="M639.399 101.482H581.281C580.911 101.48 580.558 101.331 580.297 101.069C580.037 100.807 579.891 100.453 579.891 100.083C579.891 99.7138 580.037 99.3593 580.297 99.0972C580.558 98.8351 580.911 98.6866 581.281 98.6841H639.399C639.769 98.6866 640.123 98.8351 640.383 99.0972C640.644 99.3593 640.79 99.7138 640.79 100.083C640.79 100.453 640.644 100.807 640.383 101.069C640.123 101.331 639.769 101.48 639.399 101.482Z" fill="#6C63FF"/>
<path d="M389.032 87.2068C394.998 87.2068 399.834 82.3732 399.834 76.4105C399.834 70.4479 394.998 65.6143 389.032 65.6143C383.067 65.6143 378.23 70.4479 378.23 76.4105C378.23 82.3732 383.067 87.2068 389.032 87.2068Z" fill="#6C63FF"/>
<path d="M463.204 87.2068C469.17 87.2068 474.006 82.3732 474.006 76.4105C474.006 70.4479 469.17 65.6143 463.204 65.6143C457.238 65.6143 452.402 70.4479 452.402 76.4105C452.402 82.3732 457.238 87.2068 463.204 87.2068Z" fill="#6C63FF"/>
<path d="M537.376 87.2068C543.342 87.2068 548.178 82.3732 548.178 76.4105C548.178 70.4479 543.342 65.6143 537.376 65.6143C531.41 65.6143 526.574 70.4479 526.574 76.4105C526.574 82.3732 531.41 87.2068 537.376 87.2068Z" fill="#6C63FF"/>
<path d="M611.548 87.2068C617.513 87.2068 622.35 82.3732 622.35 76.4105C622.35 70.4479 617.513 65.6143 611.548 65.6143C605.582 65.6143 600.746 70.4479 600.746 76.4105C600.746 82.3732 605.582 87.2068 611.548 87.2068Z" fill="#6C63FF"/>
</g>
<defs>
<clipPath id="clip0_747_401">
<rect width="685" height="455" fill="white"/>
</clipPath>
</defs>
</svg>
