<svg width="651" height="591" viewBox="0 0 651 591" fill="none" xmlns="http://www.w3.org/2000/svg">
<g clip-path="url(#clip0_342_851)">
<path d="M347.43 239.373C347.569 239.887 347.201 240.243 346.66 240.143C336.196 235.831 299.748 218.431 299.108 208.027C337.784 224.125 365.411 162.375 360.909 140.837C358.494 152.833 335.199 167.816 324.71 165.471C323.533 165.208 310.301 180.735 314.312 183.562C309.129 191.553 303.949 230.754 297.368 233.214C297.15 233.296 296.84 233.144 296.597 233.214C270.184 224.825 248.098 227.977 231.901 200.497C221.154 182.266 229.724 187.124 241.528 179.328C264.933 163.87 256.811 153.986 268.87 132.754C295.782 85.3744 351.349 104.503 365.145 129.675C381.515 159.544 358.402 200.52 384.4 232.829C372.656 237.823 349.966 236.972 347.045 237.833C345.53 238.28 347.41 239.296 347.43 239.373Z" fill="#090814"/>
<path d="M261.319 163.949C261.319 134.681 285.058 110.954 314.341 110.954C343.624 110.954 367.363 134.681 367.363 163.949C367.363 187.686 351.748 207.775 330.226 214.522L322.321 220.888L336.514 270.535L319.976 282.228L267.723 238.705C267.723 238.705 279.011 224.334 285.065 208.13C270.757 198.639 261.319 182.399 261.319 163.949Z" fill="#FFB6B6"/>
<path d="M498.191 299.73L460.202 431.674L421.785 405.025L467.056 289.907C463.108 282.599 462.127 272.993 465.126 263.498C470.373 246.885 485.778 236.935 499.534 241.275C513.29 245.616 520.188 262.602 514.941 279.215C511.942 288.71 505.621 296.012 498.191 299.73Z" fill="#FFB6B6"/>
<path d="M371.41 351.828H234.378V511.349H371.41V351.828Z" fill="#FFB6B6"/>
<path d="M280.376 224.626L247.801 298.979L251.024 426.765H361.121L364.577 291.174L323.702 228.204L280.376 224.626Z" fill="#D6D6E3"/>
<path d="M214.93 254.212C214.93 254.212 205.394 527.632 179.787 572.753C179.787 572.753 215.175 578.917 224.175 566.169C233.175 553.421 267.89 468.551 268.266 449.755C268.643 430.96 279.518 224.534 279.518 224.534L214.93 254.212Z" fill="#090814"/>
<path d="M320.826 235.717L323.702 228.204L396.715 257.184C396.715 257.184 393.309 530.427 422.867 558.037C422.867 558.037 373.487 555.683 371.847 554.552C370.207 553.421 334.357 412.128 334.357 412.128C334.357 412.128 351.447 346.673 352.766 318.724C354.085 290.775 320.826 235.717 320.826 235.717Z" fill="#090814"/>
<path d="M225.965 451.463L194.884 545.863L193.032 591H422.848L378.525 451.463H225.965Z" fill="#090814"/>
<path d="M378.189 262.526L396.715 257.184L439.314 343.411L457.57 296.183L502.674 309.063C502.674 309.063 482.173 442.042 451.178 434.89C420.183 427.737 378.189 354.711 378.189 354.711V262.526Z" fill="#090814"/>
<path d="M195.567 525.845L133.396 435.511L161.976 410.378L220.398 508.695C227.976 509.958 235.549 514.689 240.784 522.262C249.945 535.512 248.477 552.395 237.506 559.973C226.535 567.55 210.215 562.952 201.055 549.702C195.819 542.129 194.07 533.375 195.567 525.845Z" fill="#FFB6B6"/>
<path d="M225.965 261.835L214.93 254.212L124.66 424.629C124.66 424.629 117.333 434.905 126.89 451.463C136.447 468.02 185.515 518.727 185.515 518.727L224.175 496.902L184.799 423.555L221.915 359.387L225.965 261.835Z" fill="#090814"/>
<path d="M360.909 140.837C358.494 152.833 310.301 180.735 314.312 183.562C309.129 191.553 303.949 230.754 297.368 233.214C297.15 233.296 296.84 233.144 296.597 233.214C270.184 224.825 248.098 227.977 231.901 200.497C221.154 182.266 229.724 187.124 241.528 179.328C264.933 163.87 256.811 153.986 268.87 132.754C295.782 85.3744 351.349 104.503 365.145 129.675C381.515 159.544 365.411 162.375 360.909 140.837Z" fill="#090814"/>
<path d="M567.752 121.409C567.752 127.161 567.236 132.898 566.221 138.489C564.48 145.369 561.739 152.282 557.918 159.066C550.889 171.537 543.361 176.194 537.17 188.408C536.106 189.23 535.01 189.971 533.897 190.696C531.673 192.13 531.431 199.155 529.061 200.364C529.045 200.38 529.029 200.38 529.013 200.396C528.577 200.702 528.174 202.201 527.787 204.457V204.489C526.594 211.466 525.563 225.662 524.37 234.057C524.208 235.072 524.063 236.006 523.902 236.828C523.499 239.052 523.08 240.47 522.612 240.647C516.857 242.871 514.406 239.825 508.103 240.647C504.718 241.098 487.435 243.87 483.921 243.87C473.942 243.87 468.541 240.47 460.464 236.828C459.9 236.586 459.336 236.329 458.739 236.071C458.53 235.99 458.336 235.893 458.127 235.813C455.805 234.83 453.613 210.048 451.436 200.67C451.421 200.654 451.421 200.638 451.421 200.622C450.969 198.672 450.518 197.399 450.066 197.141C449.953 197.077 449.84 197.012 449.728 196.948C448.293 196.126 446.89 195.224 445.52 194.289C437.217 180.464 421.177 167.316 413.261 145.804C410.988 137.732 409.763 129.449 409.763 121.409C409.763 77.8065 445.133 42.4541 488.758 42.4541C532.382 42.4541 567.752 77.8066 567.752 121.409Z" fill="#6C63FF"/>
<path d="M566.221 138.489C564.48 145.369 561.739 152.282 557.918 159.066C550.889 171.537 543.361 176.194 537.17 188.408C533.059 196.545 529.529 208.034 527.143 227.402C526.997 228.546 527.304 229.851 527.143 230.979C526.772 233.477 527.223 233.025 525.708 235.281C525.015 235.668 524.595 235.12 524.37 234.057C523.951 232.268 524.063 228.965 524.273 225.968C524.821 217.782 526.062 210.692 527.787 204.489V204.457C528.174 203.055 528.593 201.701 529.013 200.396C536.477 177.676 550.245 167.38 556.484 155.488C589.258 93.1625 528.69 23.5856 461.98 47.7877C458.401 49.0929 458.595 49.8501 458.401 49.9468C453.387 52.1222 449.309 53.0728 444.44 56.3761C414.873 76.4854 404.266 116.269 417.598 149.043C424.82 166.784 439.942 176.79 449.728 196.948C450.308 198.124 450.872 199.349 451.421 200.622C451.421 200.638 451.421 200.654 451.437 200.67C455.37 209.903 458.159 221.231 458.74 236.071C458.756 236.28 458.772 236.49 458.772 236.699C459.352 236.748 459.916 236.78 460.464 236.828C469.025 237.569 474.571 238.939 477.44 237.457L480.6 237.779C481.648 239.245 499.253 237.457 502.074 237.424H502.799C509.812 237.328 516.889 237.682 523.902 236.828C524.257 236.796 524.628 236.748 524.982 236.699C526.804 237.215 526.32 238.762 526.417 238.858C526.643 240.889 523.273 246.77 522.129 247.431C518.824 249.364 464.979 250.347 459.836 246.722C454.403 242.887 457.079 237.585 456.982 237.07C456.886 236.619 454.903 235.33 454.822 234.911C453.855 229.432 454.999 215.526 448.39 199.848C447.6 197.963 446.632 196.126 445.52 194.289C437.218 180.464 421.177 167.316 413.261 145.805C409.585 135.846 407.651 124.116 409.005 109.695C411.859 79.4019 438.007 49.5924 467.348 42.0675C528.755 26.3087 580.601 81.9638 566.221 138.489Z" fill="#010001"/>
<path d="M522.899 249.103C528.009 253.962 525.278 255.604 522.899 261.268C519.896 260.593 468.491 263.877 461.329 261.268C456.526 259.518 455.162 253.211 459.181 249.103C479.656 251.422 502.516 251.51 522.899 249.103Z" fill="#010001"/>
<path d="M525.764 263.414C527.775 267.884 523.927 270.627 522.184 274.148L518.604 274.863L462.045 274.148C458.633 273.491 456.482 268.726 455.602 265.561C455.708 265.505 455.198 264.409 456.676 263.414L461.33 261.983C476.015 263.408 502.87 264.062 517.531 263.414C517.966 263.395 520.368 261.042 525.764 263.414Z" fill="#010001"/>
<path d="M488.344 0.125059C491.371 -1.93977 491.426 22.2371 490.492 23.0235C486.96 25.9972 487.33 0.81713 488.344 0.125059Z" fill="#010001"/>
<path d="M464.002 2.27183C466.382 0.742454 471.875 23.6262 471.519 24.8124C469.496 31.5507 462.882 2.99162 464.002 2.27183Z" fill="#010001"/>
<path d="M512.686 2.27173C515.525 1.52633 510.748 23.7796 510.18 24.8123C504.813 34.574 511.146 2.67627 512.686 2.27173Z" fill="#010001"/>
<path d="M479.359 205.198H477.874V180.958L450.539 123.101L451.882 122.468L479.359 180.626V205.198Z" fill="#0F0F10"/>
<path d="M502.462 205.231L501.246 178.302L501.271 178.199L515.781 118.581L517.224 118.931L502.739 178.447L503.945 205.164L502.462 205.231Z" fill="#0F0F10"/>
</g>
<defs>
<clipPath id="clip0_342_851">
<rect width="651" height="591" fill="white"/>
</clipPath>
</defs>
</svg>
