<svg width="40" height="40" viewBox="0 0 40 40" fill="none" xmlns="http://www.w3.org/2000/svg">
<path d="M34.9345 17.0233H31.5794C31.8521 18.0033 31.9885 18.9832 31.9885 19.9631C31.9885 21.5964 31.6748 23.1479 31.0474 24.6178C30.4201 26.0877 29.5608 27.3671 28.4697 28.4559C27.3786 29.5447 26.0965 30.4021 24.6236 31.0282C23.1506 31.6543 21.5957 31.9673 19.9591 31.9673C18.3224 31.9673 16.7812 31.6543 15.3355 31.0282C13.8898 30.4021 12.6214 29.5447 11.5303 28.4559C10.4392 27.3671 9.57995 26.0877 8.95257 24.6178C8.32518 23.1479 8.01149 21.5964 8.01149 19.9631C8.01149 18.9832 8.14788 18.0033 8.42065 17.0233H4.98367V33.4372C4.98367 33.8727 5.1337 34.2266 5.43375 34.4988C5.73381 34.771 6.10205 34.9071 6.5385 34.9071H33.4615C33.8979 34.9071 34.2526 34.771 34.5253 34.4988C34.7981 34.2266 34.9345 33.8727 34.9345 33.4372V17.0233ZM34.9345 6.57074C34.9345 6.13522 34.7981 5.76774 34.5253 5.46832C34.2526 5.1689 33.8979 5.01918 33.4615 5.01918H28.9607C28.5243 5.01918 28.1696 5.1689 27.8969 5.46832C27.6241 5.76774 27.4877 6.13522 27.4877 6.57074V10.9804C27.4877 11.416 27.6241 11.7834 27.8969 12.0829C28.1696 12.3823 28.5243 12.532 28.9607 12.532H33.4615C33.8979 12.532 34.2526 12.3823 34.5253 12.0829C34.7981 11.7834 34.9345 11.416 34.9345 10.9804V6.57074ZM19.9591 12.532C17.886 12.532 16.1266 13.2533 14.6809 14.696C13.2352 16.1387 12.5123 17.8944 12.5123 19.9631C12.5123 20.9975 12.7032 21.9774 13.0851 22.9029C13.467 23.8284 13.9989 24.6314 14.6809 25.3119C15.3628 25.9924 16.1539 26.5232 17.054 26.9043C17.9542 27.2854 18.9225 27.4759 19.9591 27.4759C20.9956 27.4759 21.9776 27.2854 22.9051 26.9043C23.8325 26.5232 24.6372 25.9924 25.3191 25.3119C26.0011 24.6314 26.533 23.8284 26.9149 22.9029C27.2968 21.9774 27.4877 20.9975 27.4877 19.9631C27.4877 18.9288 27.2968 17.9624 26.9149 17.0642C26.533 16.1659 26.0011 15.3765 25.3191 14.696C24.6372 14.0155 23.8325 13.4847 22.9051 13.1036C21.9776 12.7225 20.9956 12.532 19.9591 12.532ZM4.98367 39.3984C3.7289 39.3984 2.67871 38.9629 1.83311 38.0919C0.9875 37.2208 0.564697 36.1592 0.564697 34.9071V5.01918C0.564697 3.76705 0.9875 2.70546 1.83311 1.83441C2.67871 0.963357 3.7289 0.527832 4.98367 0.527832H34.9345C36.1893 0.527832 37.2531 0.963357 38.126 1.83441C38.9989 2.70546 39.4353 3.76705 39.4353 5.01918V34.9071C39.4353 36.1592 38.9989 37.2208 38.126 38.0919C37.2531 38.9629 36.1893 39.3984 34.9345 39.3984H4.98367Z" fill="white"/>
</svg>
