<svg width="40" height="40" viewBox="0 0 40 40" fill="none" xmlns="http://www.w3.org/2000/svg">
<path d="M0.564697 11.339H9.16585V39.3984H0.564697V11.339ZM33.5634 13.0721C35.2726 14.0074 36.6785 15.4241 37.7812 17.3222C38.884 19.2204 39.4353 21.1598 39.4353 23.1405V39.3984H30.7514V23.1405C30.7514 22.7003 30.586 22.2051 30.2552 21.655C29.9244 21.1048 29.6212 20.7472 29.3455 20.5821C28.9044 20.307 28.2979 20.1695 27.526 20.1695C26.7541 20.1695 26.1476 20.2795 25.7065 20.4996L22.1503 22.2327V39.3984H13.4664V11.339H22.1503V12.6594C23.8595 11.8892 25.7892 11.5315 27.9395 11.5866C30.0898 11.6416 31.9644 12.1367 33.5634 13.0721ZM4.86528 0.527832C6.07826 0.527832 7.09827 0.940471 7.9253 1.76575C8.75234 2.59103 9.16585 3.60887 9.16585 4.81928C9.16585 6.02969 8.75234 7.06129 7.9253 7.91407C7.09827 8.76686 6.07826 9.19325 4.86528 9.19325C3.65229 9.19325 2.63228 8.76686 1.80525 7.91407C0.978214 7.06129 0.564697 6.02969 0.564697 4.81928C0.564697 3.60887 0.978214 2.59103 1.80525 1.76575C2.63228 0.940471 3.65229 0.527832 4.86528 0.527832Z" fill="white"/>
</svg>
