<svg width="590" height="590" viewBox="0 0 590 590" fill="none" xmlns="http://www.w3.org/2000/svg">
<path d="M25.4914 59.7825C24.4824 59.7813 23.5143 60.2544 22.7992 61.098C22.0842 61.9416 21.6806 63.0868 21.677 64.2824L20.7393 546.927C20.7381 548.123 21.1373 549.271 21.8491 550.118C22.561 550.966 23.5275 551.444 24.5366 551.449L352.643 552.343C353.653 552.344 354.621 551.871 355.336 551.027C356.052 550.183 356.455 549.038 356.459 547.842L357.396 65.1968C357.397 64.001 356.998 62.8535 356.286 62.0061C355.574 61.1587 354.607 60.6806 353.598 60.6765L25.4914 59.7825Z" fill="#E6E6E6"/>
<path d="M33.8872 68.7307C32.8541 68.7296 31.8629 69.214 31.1307 70.0776C30.3986 70.9413 29.9853 72.1138 29.9815 73.338L29.083 537.949C29.0821 539.174 29.4908 540.348 30.2196 541.216C30.9484 542.084 31.9378 542.573 32.9709 542.578L343.97 543.423C345.003 543.424 345.994 542.94 346.726 542.076C347.459 541.212 347.872 540.04 347.875 538.816L348.774 74.2042C348.775 72.9797 348.366 71.8048 347.637 70.9371C346.908 70.0694 345.918 69.5798 344.885 69.5758L33.8872 68.7307Z" fill="white"/>
<path d="M301.041 271.298L77.2298 270.687C76.4747 270.695 75.7259 270.525 75.0266 270.188C74.3273 269.85 73.6914 269.352 73.1558 268.721C72.6202 268.09 72.1955 267.34 71.9063 266.513C71.617 265.687 71.469 264.8 71.4707 263.906C71.4725 263.011 71.624 262.125 71.9164 261.3C72.2089 260.475 72.6365 259.727 73.1746 259.1C73.7127 258.472 74.3504 257.977 75.051 257.643C75.7516 257.309 76.5011 257.144 77.2561 257.155L301.067 257.766C301.822 257.759 302.571 257.928 303.27 258.266C303.97 258.604 304.605 259.102 305.141 259.733C305.677 260.364 306.101 261.114 306.391 261.941C306.68 262.767 306.828 263.653 306.826 264.548C306.824 265.443 306.673 266.328 306.38 267.153C306.088 267.978 305.66 268.726 305.122 269.354C304.584 269.982 303.946 270.477 303.246 270.811C302.545 271.144 301.796 271.309 301.041 271.298Z" fill="#E6E6E6"/>
<path d="M303.208 145.229L154.723 144.821C152.631 144.815 150.944 141.779 150.948 138.044C150.953 134.31 152.66 131.284 154.75 131.288L303.234 131.693C305.326 131.699 307.013 134.735 307.009 138.469C307.005 142.204 305.297 145.238 303.208 145.229Z" fill="#E6E6E6"/>
<path d="M303.132 184.021L154.648 183.616C152.556 183.61 150.869 180.574 150.873 176.84C150.877 173.105 152.585 170.079 154.675 170.084L303.159 170.488C305.251 170.494 306.938 173.531 306.934 177.265C306.93 180.999 305.225 184.026 303.132 184.021Z" fill="#E6E6E6"/>
<path d="M300.953 315.051L77.1409 314.441C76.3859 314.449 75.637 314.279 74.9377 313.942C74.2384 313.604 73.6026 313.105 73.067 312.475C72.5314 311.844 72.1067 311.094 71.8174 310.267C71.5281 309.441 71.3801 308.554 71.3819 307.659C71.3836 306.765 71.5351 305.879 71.8276 305.054C72.12 304.229 72.5477 303.481 73.0857 302.853C73.6238 302.226 74.2616 301.731 74.9622 301.397C75.6628 301.063 76.4123 300.897 77.1673 300.909L300.978 301.519C302.486 301.514 303.935 302.216 305.008 303.472C306.081 304.728 306.691 306.436 306.705 308.223C306.719 310.01 306.135 311.731 305.082 313.011C304.029 314.29 302.592 315.024 301.084 315.051H300.952L300.953 315.051Z" fill="#E6E6E6"/>
<path d="M300.873 358.804L77.0608 358.193C76.3058 358.201 75.5569 358.031 74.8576 357.694C74.1583 357.356 73.5225 356.858 72.9869 356.227C72.4513 355.596 72.0266 354.846 71.7373 354.019C71.4481 353.193 71.3 352.306 71.3018 351.412C71.3035 350.517 71.455 349.631 71.7475 348.806C72.04 347.981 72.4676 347.233 73.0056 346.606C73.5437 345.978 74.1815 345.483 74.8821 345.149C75.5827 344.815 76.3322 344.65 77.0872 344.661L300.898 345.272C301.651 345.259 302.398 345.421 303.098 345.751C303.797 346.081 304.434 346.572 304.973 347.194C305.512 347.817 305.942 348.56 306.237 349.381C306.533 350.201 306.689 351.082 306.696 351.974C306.703 352.866 306.561 353.751 306.279 354.578C305.996 355.405 305.578 356.157 305.05 356.792C304.521 357.427 303.891 357.931 303.197 358.277C302.503 358.622 301.759 358.801 301.006 358.804H300.872H300.873Z" fill="#E6E6E6"/>
<path d="M300.787 402.559L76.9759 401.948C76.2208 401.956 75.472 401.786 74.7727 401.448C74.0734 401.111 73.4375 400.612 72.9019 399.982C72.3663 399.351 71.9416 398.601 71.6524 397.774C71.3631 396.947 71.2151 396.061 71.2168 395.166C71.2186 394.272 71.3701 393.386 71.6625 392.561C71.955 391.736 72.3826 390.988 72.9207 390.36C73.4587 389.733 74.0965 389.237 74.7971 388.904C75.4977 388.57 76.2472 388.404 77.0022 388.416L300.813 389.027C302.322 389.021 303.771 389.722 304.844 390.978C305.918 392.234 306.528 393.942 306.542 395.73C306.557 397.517 305.973 399.239 304.92 400.518C303.867 401.798 302.429 402.532 300.921 402.559H300.787Z" fill="#E6E6E6"/>
<path d="M190.591 444.421L76.8899 443.81C76.1349 443.818 75.386 443.648 74.6867 443.311C73.9874 442.973 73.3516 442.474 72.816 441.844C72.2804 441.213 71.8557 440.463 71.5664 439.636C71.2772 438.81 71.1291 437.923 71.1309 437.028C71.1326 436.134 71.2841 435.248 71.5766 434.423C71.869 433.598 72.2967 432.85 72.8347 432.222C73.3728 431.595 74.0106 431.1 74.7112 430.766C75.4118 430.432 76.1613 430.266 76.9163 430.278L190.617 430.89C191.37 430.876 192.117 431.039 192.817 431.369C193.516 431.699 194.154 432.189 194.692 432.812C195.231 433.435 195.661 434.178 195.956 434.998C196.252 435.818 196.408 436.7 196.415 437.592C196.422 438.484 196.28 439.369 195.998 440.195C195.715 441.022 195.298 441.775 194.769 442.409C194.24 443.044 193.611 443.549 192.917 443.894C192.223 444.24 191.478 444.419 190.725 444.422L190.591 444.421Z" fill="#E6E6E6"/>
<path d="M190.506 488.172L76.805 487.561C76.0499 487.569 75.3011 487.399 74.6018 487.061C73.9025 486.724 73.2666 486.225 72.731 485.595C72.1954 484.964 71.7707 484.214 71.4815 483.387C71.1922 482.56 71.0442 481.674 71.0459 480.779C71.0477 479.885 71.1992 478.999 71.4916 478.174C71.7841 477.349 72.2117 476.601 72.7498 475.973C73.2878 475.346 73.9256 474.85 74.6262 474.517C75.3268 474.183 76.0764 474.017 76.8314 474.029L190.532 474.64C191.285 474.626 192.033 474.789 192.732 475.119C193.431 475.449 194.069 475.939 194.607 476.562C195.146 477.185 195.576 477.928 195.872 478.748C196.167 479.568 196.323 480.45 196.33 481.342C196.337 482.234 196.195 483.119 195.913 483.945C195.63 484.772 195.213 485.525 194.684 486.159C194.155 486.794 193.526 487.299 192.832 487.644C192.138 487.99 191.393 488.169 190.64 488.172H190.506Z" fill="#E6E6E6"/>
<path d="M341.634 88.0897V44.8986C341.695 41.6892 341.222 38.4971 340.241 35.5045C339.261 32.5119 337.793 29.7775 335.921 27.4575C334.048 25.1376 331.809 23.2776 329.33 21.9838C326.85 20.6899 324.18 19.9877 321.472 19.917C318.764 19.8464 316.071 20.4089 313.546 21.5723C311.021 22.7356 308.715 24.4771 306.758 26.6972C304.801 28.9174 303.233 31.5726 302.143 34.5112C301.052 37.4498 300.461 40.6142 300.403 43.8236H304.941C305.104 38.9 306.867 34.2418 309.862 30.8239C312.857 27.4059 316.851 25.4931 321.009 25.4858H321.245C325.514 25.5681 329.582 27.6546 332.554 31.2874C335.526 34.9201 337.16 39.802 337.098 44.8614V88.4379C337.06 91.8 335.907 95.0095 333.889 97.3728C331.871 99.7362 329.149 101.064 326.312 101.068H326.179C323.315 101.021 320.584 99.628 318.586 97.1952C316.587 94.7625 315.486 91.4892 315.524 88.0948L315.549 45.1943C315.547 44.3486 315.685 43.5107 315.956 42.7283C316.227 41.9459 316.625 41.2345 317.128 40.6345C317.631 40.0345 318.229 39.5579 318.887 39.2317C319.546 38.9055 320.252 38.7362 320.965 38.7334C321.679 38.7306 322.386 38.8944 323.046 39.2155C323.706 39.5366 324.307 40.0086 324.813 40.6046C325.319 41.2007 325.722 41.909 325.997 42.6893C326.272 43.4695 326.415 44.3064 326.417 45.1521V57.6159C326.417 58.329 326.656 59.0128 327.082 59.517C327.507 60.0212 328.084 60.3045 328.686 60.3045C329.288 60.3045 329.865 60.0212 330.29 59.517C330.716 59.0128 330.955 58.329 330.955 57.6159V45.109C330.953 43.5574 330.693 42.0216 330.189 40.5892C329.686 39.1568 328.95 37.8558 328.023 36.7606C327.095 35.6653 325.995 34.7973 324.784 34.206C323.574 33.6147 322.277 33.3118 320.968 33.3144C319.659 33.3171 318.363 33.6253 317.154 34.2215C315.945 34.8177 314.847 35.6902 313.923 36.7892C312.999 37.8882 312.266 39.1922 311.767 40.6266C311.268 42.0611 311.013 43.598 311.015 45.1495L310.992 88.0601C310.947 92.8747 312.515 97.5137 315.353 100.959C318.191 104.405 322.066 106.376 326.129 106.44H326.318C330.349 106.432 334.216 104.545 337.083 101.185C339.95 97.8257 341.586 93.2643 341.637 88.4869C341.634 88.3475 341.634 88.2072 341.634 88.0897Z" fill="#6C63FF"/>
<path d="M300.403 459.635C300.409 464.966 299.607 470.255 298.035 475.25C297.321 477.538 296.445 479.75 295.417 481.864C292.112 488.698 287.343 494.377 281.591 498.327C275.84 502.277 269.31 504.357 262.663 504.357C256.015 504.357 249.486 502.277 243.735 498.327C237.983 494.377 233.214 488.698 229.908 481.864C229.576 481.176 229.258 480.479 228.956 479.77C226.391 473.74 225.011 467.099 224.921 460.346C224.83 453.593 226.031 446.904 228.434 440.78C230.837 434.656 234.378 429.256 238.793 424.985C243.209 420.715 248.382 417.685 253.927 416.122C259.471 414.559 265.242 414.505 270.807 415.963C276.372 417.421 281.585 420.353 286.057 424.54C290.529 428.727 294.143 434.059 296.627 440.137C299.112 446.215 300.403 452.881 300.403 459.635Z" fill="#E4E4E4"/>
<path d="M131.249 156.114C131.255 161.445 130.453 166.734 128.881 171.729C128.167 174.017 127.291 176.229 126.263 178.342C122.958 185.177 118.188 190.856 112.437 194.805C106.686 198.755 100.156 200.835 93.5091 200.835C86.8619 200.835 80.3325 198.755 74.5812 194.805C68.8298 190.856 64.0604 185.177 60.7551 178.342C60.4224 177.655 60.105 176.957 59.8031 176.249C57.2377 170.218 55.8579 163.578 55.7675 156.825C55.677 150.072 56.8781 143.383 59.2807 137.258C61.6833 131.134 65.225 125.734 69.6401 121.464C74.0552 117.194 79.229 114.163 84.7734 112.601C90.3179 111.038 96.0889 110.984 101.654 112.442C107.218 113.9 112.432 116.832 116.904 121.019C121.376 125.206 124.989 130.538 127.474 136.616C129.958 142.694 131.249 149.36 131.249 156.114Z" fill="#E4E4E4"/>
<path d="M93.5043 159.597C97.4891 159.597 100.719 155.769 100.719 151.047C100.719 146.324 97.4891 142.496 93.5043 142.496C89.5194 142.496 86.2891 146.324 86.2891 151.047C86.2891 155.769 89.5194 159.597 93.5043 159.597Z" fill="#090814"/>
<path d="M59.8027 176.25C62.9818 172.178 67.2311 165.715 71.2174 170.385C73.2177 172.588 76.3518 178.047 79.3468 174.479L102.748 146.747C103.189 146.232 103.712 145.826 104.286 145.553C104.861 145.281 105.476 145.147 106.095 145.161C106.714 145.174 107.325 145.333 107.891 145.63C108.457 145.927 108.967 146.354 109.392 146.888L128.882 171.733C128.168 174.021 127.292 176.233 126.264 178.347H60.7547L59.8027 176.25Z" fill="#6C63FF"/>
<path d="M326.374 95.1414C329.33 95.1414 331.727 92.3015 331.727 88.7984C331.727 85.2952 329.33 82.4553 326.374 82.4553C323.418 82.4553 321.021 85.2952 321.021 88.7984C321.021 92.3015 323.418 95.1414 326.374 95.1414Z" fill="#6C63FF"/>
<path d="M539.32 341.692C539.098 341.692 538.875 341.684 538.652 341.669L517.176 340.233L516.595 338.687L517.001 338.471L561.67 314.9L562.252 316.447L548.586 336.458C547.467 338.092 546.055 339.411 544.452 340.317C542.85 341.223 541.097 341.695 539.321 341.697L539.32 341.692Z" fill="#6C63FF"/>
<path d="M570.968 550.451H0V552.342H570.968V550.451Z" fill="#CCCCCC"/>
<path d="M495.892 287.79L437.646 279.281L440.837 218.766H495.889L495.892 287.79Z" fill="#FFB9B9"/>
<path d="M530.462 367.117C529.442 367.115 528.444 366.759 527.593 366.094C526.741 365.428 526.073 364.482 525.67 363.371L516.652 338.442L543.38 338.552L561.745 315.537L570.552 339.906C571.085 341.399 571.104 343.081 570.605 344.59C570.105 346.1 569.126 347.317 567.878 347.982L532.58 366.583C531.913 366.935 531.191 367.117 530.462 367.117Z" fill="#6C63FF"/>
<path opacity="0.242" d="M539.32 341.692C539.098 341.692 538.875 341.684 538.652 341.669L517.176 340.233L516.595 338.687L517.001 338.471L561.67 314.9L562.252 316.447L548.586 336.458C547.467 338.092 546.055 339.411 544.452 340.317C542.85 341.223 541.097 341.695 539.321 341.697L539.32 341.692Z" fill="#090814"/>
<path d="M503.054 130.451L446.183 131.296C445.116 131.294 444.093 130.791 443.338 129.897C442.583 129.002 442.159 127.79 442.157 126.525V104.254C442.157 94.8329 445.315 85.7979 450.937 79.1364C456.558 72.4748 464.182 68.7324 472.132 68.7324C480.082 68.7324 487.706 72.4748 493.327 79.1364C498.949 85.7979 502.107 94.8329 502.107 104.254L507.08 125.679C507.08 126.944 506.655 128.157 505.9 129.052C505.145 129.946 504.121 130.449 503.054 130.451Z" fill="#090814"/>
<path d="M530.895 329.888C529.949 328.873 529.202 327.624 528.707 326.23C528.212 324.836 527.981 323.33 528.03 321.818C528.079 320.307 528.407 318.826 528.991 317.481C529.576 316.136 530.401 314.96 531.411 314.034L521.517 279.184L537.105 284.066L544.113 316.411C545.319 318.524 545.828 321.088 545.543 323.616C545.259 326.145 544.2 328.461 542.568 330.124C540.937 331.788 538.846 332.683 536.694 332.64C534.542 332.596 532.478 331.617 530.895 329.888Z" fill="#FFB6B6"/>
<path d="M463.508 554.012L449.97 551.768L452.001 497.346L471.985 500.655L463.508 554.012Z" fill="#FFB9B9"/>
<path d="M525.915 525.593L513.749 532.143L481.523 482.243L499.479 472.576L525.915 525.593Z" fill="#FFB9B9"/>
<path d="M471.883 131.061C483.347 131.061 492.641 120.047 492.641 106.461C492.641 92.875 483.347 81.8613 471.883 81.8613C460.418 81.8613 451.124 92.875 451.124 106.461C451.124 120.047 460.418 131.061 471.883 131.061Z" fill="#FFB9B9"/>
<path d="M488.319 507.716L439.703 360.812C422.304 304.49 437.849 265.673 438.01 265.287L438.09 265.098L438.256 265.026C440.253 274.237 485.517 273.607 495.89 259.424C501.944 265.451 510.002 279.642 511.728 296.599C513.532 314.791 512.164 333.228 507.709 350.768L488.559 427.698L512.251 490.947L488.319 507.716Z" fill="#090814"/>
<path d="M464.875 416.594L447.325 522.075L470.704 527.299L485.413 435.995L464.875 416.594Z" fill="#090814"/>
<path d="M482.289 125.468C482.289 125.468 481.923 143.241 483.386 143.673C484.85 144.106 463.268 151.042 463.268 151.042L461.073 126.768L482.289 125.468Z" fill="#FFB9B9"/>
<path d="M439.238 236.732C442.977 237.915 479.946 255.968 497.484 237.677L511.247 157.151L494.758 150.988L489.004 142.696C488.381 141.797 487.595 141.075 486.704 140.585C485.814 140.096 484.841 139.85 483.86 139.867L463.404 140.191C462.499 140.207 461.607 140.444 460.783 140.887C459.959 141.331 459.221 141.972 458.616 142.769L452.064 151.429L437.265 155.51L439.238 236.732Z" fill="#6C63FF"/>
<path d="M504.972 163.431L509.453 156.359C509.453 156.359 517.663 158.916 521.835 172.858C526.007 186.801 543.098 298.193 543.098 298.193L524.692 308.319L499.769 209.87L504.972 163.431Z" fill="#6C63FF"/>
<path d="M357.486 296.087C357.659 294.589 358.108 293.154 358.801 291.883C359.493 290.613 360.412 289.538 361.493 288.734C362.574 287.929 363.791 287.416 365.057 287.229C366.324 287.042 367.61 287.187 368.824 287.653L387.531 258.318L392.918 276.327L374.327 301.426C373.534 303.795 372.034 305.737 370.112 306.883C368.19 308.028 365.98 308.297 363.902 307.639C361.824 306.98 360.022 305.44 358.839 303.311C357.655 301.182 357.173 298.613 357.483 296.09L357.486 296.087Z" fill="#FFB6B6"/>
<path d="M443.838 161.87L437.64 155.414C437.64 155.414 431.147 157.358 426.976 171.301C422.804 185.245 369.561 278.716 369.561 278.716L387.966 288.842L449.043 208.307L443.838 161.87Z" fill="#6C63FF"/>
<path d="M493.514 104.839H464.5C463.954 104.838 463.428 104.602 463.02 104.174C462.611 103.747 462.348 103.157 462.28 102.516L461.904 98.9553C461.867 98.6131 461.738 98.2943 461.535 98.0468C461.332 97.7994 461.067 97.6367 460.78 97.5834C460.492 97.5301 460.198 97.589 459.941 97.7512C459.684 97.9135 459.479 98.1703 459.356 98.4829L457.453 103.309C457.272 103.765 456.985 104.151 456.626 104.422C456.268 104.692 455.851 104.837 455.426 104.838H451.019C450.726 104.838 450.435 104.77 450.164 104.638C449.892 104.505 449.646 104.311 449.438 104.065C449.23 103.82 449.065 103.528 448.953 103.207C448.84 102.886 448.782 102.542 448.781 102.194C448.781 102.108 448.785 102.021 448.792 101.934L450.53 80.4239C450.567 79.9641 450.704 79.5235 450.928 79.1452C451.151 78.7669 451.454 78.4639 451.806 78.2656C465.094 70.9136 478.568 70.9245 491.856 78.2943C492.193 78.4821 492.486 78.7665 492.707 79.1218C492.928 79.4771 493.071 79.8921 493.122 80.3293L495.726 101.811C495.771 102.186 495.749 102.569 495.659 102.934C495.568 103.298 495.413 103.635 495.204 103.922C494.994 104.209 494.735 104.439 494.443 104.597C494.152 104.755 493.835 104.837 493.515 104.837L493.514 104.839Z" fill="#2F2E41"/>
<path d="M466.094 542.434C466.094 542.434 471.625 562.868 466.153 565.836C460.681 568.805 453.657 565.366 447.742 567.728C441.826 570.091 426.416 561.965 426.416 561.965C426.416 561.965 424.864 555.559 435.508 554.732C435.508 554.732 447.585 545.46 447.719 543.192C447.853 540.925 454.562 541.475 454.562 541.475L466.094 542.434Z" fill="#090814"/>
<path d="M528.735 525.283C528.735 525.283 537.176 544.258 532.225 548.307C527.274 552.355 519.856 550.417 514.38 553.96C508.903 557.504 492.543 552.679 492.543 552.679C492.543 552.679 490.076 546.693 500.432 543.687C500.432 543.687 510.96 532.074 510.76 529.814C510.559 527.554 517.244 526.714 517.244 526.714L528.735 525.283Z" fill="#090814"/>
</svg>
