<svg width="513" height="323" viewBox="0 0 513 323" fill="none" xmlns="http://www.w3.org/2000/svg">
<g clip-path="url(#clip0_435_324)">
<path d="M513 132.659H512.134V108.884C512.134 107.077 511.778 105.287 511.088 103.618C510.398 101.948 509.386 100.431 508.11 99.1534C506.835 97.8756 505.32 96.862 503.654 96.1705C501.987 95.479 500.201 95.123 498.397 95.123H448.112C446.308 95.123 444.522 95.479 442.855 96.1705C441.189 96.862 439.675 97.8756 438.399 99.1534C437.123 100.431 436.111 101.948 435.421 103.618C434.731 105.287 434.375 107.077 434.375 108.884V239.318C434.375 241.125 434.731 242.915 435.421 244.584C436.111 246.254 437.123 247.771 438.399 249.048C439.675 250.326 441.189 251.34 442.855 252.031C444.522 252.723 446.308 253.079 448.112 253.079H498.397C500.201 253.079 501.987 252.723 503.654 252.031C505.32 251.34 506.835 250.326 508.11 249.048C509.386 247.771 510.398 246.254 511.088 244.584C511.778 242.915 512.134 241.125 512.134 239.318V149.583H513V132.659Z" fill="#3F3D56"/>
<path d="M509.21 109.692V239.937C509.21 242.663 508.129 245.277 506.205 247.204C504.281 249.132 501.671 250.215 498.95 250.215H448.424C447.077 250.215 445.743 249.949 444.499 249.432C443.254 248.915 442.124 248.158 441.171 247.204C440.219 246.25 439.464 245.117 438.949 243.87C438.433 242.623 438.168 241.286 438.169 239.937V109.692C438.169 106.968 439.249 104.355 441.173 102.428C443.096 100.502 445.704 99.4192 448.424 99.4192H454.554C454.253 100.16 454.139 100.964 454.221 101.76C454.303 102.556 454.579 103.32 455.025 103.984C455.47 104.648 456.072 105.192 456.777 105.569C457.481 105.945 458.268 106.143 459.067 106.143H487.875C488.674 106.145 489.462 105.949 490.168 105.573C490.874 105.197 491.477 104.653 491.923 103.988C492.369 103.323 492.645 102.559 492.726 101.762C492.807 100.965 492.69 100.16 492.387 99.4192H498.95C501.671 99.4191 504.28 100.501 506.204 102.428C508.128 104.354 509.209 106.967 509.21 109.692Z" fill="#D0CDE1"/>
<path d="M499.645 166.101H440.91V181.978H499.645V166.101Z" fill="#3A7D44"/>
<path d="M501.976 179.176H445.105C444.735 179.176 444.379 179.028 444.117 178.765C443.855 178.503 443.707 178.147 443.707 177.775V163.766C443.707 163.395 443.855 163.039 444.117 162.776C444.379 162.514 444.735 162.366 445.105 162.365H501.976C502.347 162.366 502.702 162.514 502.964 162.776C503.227 163.039 503.374 163.395 503.374 163.766V177.775C503.374 178.147 503.227 178.503 502.964 178.765C502.702 179.028 502.347 179.176 501.976 179.176ZM445.105 163.299C444.982 163.3 444.863 163.349 444.776 163.436C444.689 163.524 444.639 163.643 444.639 163.766V177.775C444.639 177.899 444.689 178.018 444.776 178.105C444.863 178.193 444.982 178.242 445.105 178.242H501.976C502.1 178.242 502.218 178.193 502.305 178.105C502.393 178.018 502.442 177.899 502.442 177.775V163.766C502.442 163.643 502.393 163.524 502.305 163.436C502.218 163.349 502.1 163.3 501.976 163.299H445.105Z" fill="#3F3D56"/>
<path d="M454.894 174.973H447.436V175.907H454.894V174.973Z" fill="#3F3D56"/>
<path d="M465.15 174.973H457.691V175.907H465.15V174.973Z" fill="#3F3D56"/>
<path d="M475.405 174.973H467.947V175.907H475.405V174.973Z" fill="#3F3D56"/>
<path d="M485.661 174.973H478.202V175.907H485.661V174.973Z" fill="#3F3D56"/>
<path d="M495.916 174.973H488.458V175.907H495.916V174.973Z" fill="#3F3D56"/>
<path opacity="0.1" d="M509.21 226.694V239.937C509.21 242.663 508.129 245.277 506.205 247.204C504.281 249.132 501.671 250.215 498.95 250.215H448.424C447.077 250.215 445.743 249.949 444.499 249.432C443.254 248.915 442.124 248.158 441.171 247.204C440.219 246.25 439.464 245.117 438.949 243.87C438.433 242.623 438.168 241.286 438.169 239.937V179.017L509.21 226.694Z" fill="black"/>
<path d="M267.036 214.665H46.5459V323H267.036V214.665Z" fill="#D0CDE1"/>
<path opacity="0.1" d="M210.981 323H47.4782C47.2312 322.999 46.9945 322.901 46.8198 322.726C46.6451 322.551 46.5466 322.313 46.5459 322.066V215.599C46.5466 215.351 46.6451 215.114 46.8198 214.939C46.9944 214.764 47.2312 214.666 47.4782 214.665H49.5479L210.981 323Z" fill="black"/>
<path d="M490.322 229.141H148.633V230.075H490.322V229.141Z" fill="#3F3D56"/>
<path d="M256.66 2.01622H159.006V0H114.726V2.01622H16.669C15.8016 2.01622 14.9426 2.18738 14.1412 2.51991C13.3398 2.85245 12.6116 3.33986 11.9982 3.9543C11.3848 4.56875 10.8983 5.2982 10.5663 6.10102C10.2343 6.90383 10.0635 7.76429 10.0635 8.63325V142.584C10.0635 144.339 10.7594 146.022 11.9982 147.263C13.237 148.504 14.9171 149.201 16.669 149.201H256.66C258.411 149.201 260.092 148.504 261.33 147.263C262.569 146.022 263.265 144.339 263.265 142.584V8.63325C263.265 7.76429 263.094 6.90383 262.762 6.10102C262.43 5.2982 261.944 4.56875 261.33 3.9543C260.717 3.33986 259.989 2.85245 259.187 2.51991C258.386 2.18738 257.527 2.01622 256.66 2.01622Z" fill="#3F3D56"/>
<path d="M254.408 13.7085H18.9219V146.783H254.408V13.7085Z" fill="#D0CDE1"/>
<path d="M136.463 10.0811C137.797 10.0811 138.878 8.9979 138.878 7.66166C138.878 6.32542 137.797 5.24219 136.463 5.24219C135.129 5.24219 134.048 6.32542 134.048 7.66166C134.048 8.9979 135.129 10.0811 136.463 10.0811Z" fill="#3A7D44"/>
<path d="M88.9654 63.3697H83.3716C83.0008 63.3692 82.6454 63.2215 82.3832 62.9589C82.121 62.6963 81.9735 62.3402 81.9731 61.9688V56.3652C81.9735 55.9938 82.121 55.6377 82.3832 55.3751C82.6454 55.1125 83.0008 54.9648 83.3716 54.9644H88.9654C89.3362 54.9648 89.6917 55.1125 89.9538 55.3751C90.216 55.6377 90.3635 55.9938 90.3639 56.3652V61.9688C90.3635 62.3402 90.216 62.6963 89.9538 62.9589C89.6917 63.2215 89.3362 63.3692 88.9654 63.3697ZM83.3716 55.8983C83.248 55.8984 83.1295 55.9477 83.0422 56.0352C82.9548 56.1228 82.9056 56.2414 82.9054 56.3652V61.9688C82.9056 62.0926 82.9548 62.2112 83.0422 62.2988C83.1295 62.3863 83.248 62.4356 83.3716 62.4357H88.9654C89.089 62.4356 89.2075 62.3863 89.2949 62.2988C89.3822 62.2112 89.4314 62.0926 89.4316 61.9688V56.3652C89.4314 56.2414 89.3822 56.1228 89.2949 56.0352C89.2075 55.9477 89.089 55.8984 88.9654 55.8983H83.3716Z" fill="#3F3D56"/>
<path d="M188.722 62.4358H82.4395V63.3697H188.722V62.4358Z" fill="#3F3D56"/>
<path d="M185.925 88.1187H161.219V95.59H185.925V88.1187Z" fill="#3A7D44"/>
<path d="M187.79 93.7222H164.948C164.577 93.7218 164.222 93.5741 163.96 93.3114C163.698 93.0488 163.55 92.6927 163.55 92.3213V86.7178C163.55 86.3464 163.698 85.9903 163.96 85.7277C164.222 85.465 164.577 85.3173 164.948 85.3169H187.79C188.16 85.3173 188.516 85.465 188.778 85.7277C189.04 85.9903 189.188 86.3464 189.188 86.7178V92.3213C189.188 92.6927 189.04 93.0488 188.778 93.3114C188.516 93.5741 188.16 93.7218 187.79 93.7222ZM164.948 86.2508C164.825 86.251 164.706 86.3002 164.619 86.3878C164.531 86.4753 164.482 86.594 164.482 86.7178V92.3213C164.482 92.4451 164.531 92.5638 164.619 92.6513C164.706 92.7389 164.825 92.7881 164.948 92.7883H187.79C187.913 92.7881 188.032 92.7389 188.119 92.6513C188.207 92.5638 188.256 92.4451 188.256 92.3213V86.7178C188.256 86.594 188.207 86.4753 188.119 86.3878C188.032 86.3002 187.913 86.251 187.79 86.2508H164.948Z" fill="#3F3D56"/>
<path d="M374.717 96.5239H328.102V129.211H374.717V96.5239Z" fill="#3A7D44"/>
<path d="M379.378 126.643H334.627C334.133 126.642 333.659 126.446 333.309 126.095C332.96 125.745 332.763 125.27 332.763 124.775V93.9557C332.763 93.4605 332.96 92.9857 333.309 92.6356C333.659 92.2854 334.133 92.0884 334.627 92.0879H379.378C379.872 92.0884 380.346 92.2854 380.696 92.6355C381.045 92.9857 381.242 93.4605 381.242 93.9557V124.775C381.242 125.27 381.045 125.745 380.696 126.095C380.346 126.446 379.872 126.642 379.378 126.643ZM334.627 93.9557V124.775H379.379L379.378 93.9557H334.627Z" fill="#3F3D56"/>
<path d="M374.25 92.7883H372.385C372.385 88.7014 370.765 84.7819 367.88 81.892C364.995 79.0021 361.082 77.3786 357.002 77.3786C352.923 77.3786 349.01 79.0021 346.125 81.892C343.24 84.7819 341.619 88.7014 341.619 92.7883H339.755C339.755 88.206 341.572 83.8114 344.807 80.5712C348.041 77.331 352.428 75.5107 357.002 75.5107C361.577 75.5107 365.964 77.331 369.198 80.5712C372.433 83.8114 374.25 88.206 374.25 92.7883Z" fill="#3F3D56"/>
<path d="M361.664 105.63C361.665 104.817 361.454 104.017 361.052 103.311C360.65 102.605 360.07 102.016 359.371 101.602C358.672 101.189 357.877 100.966 357.066 100.955C356.254 100.944 355.454 101.145 354.743 101.54C354.033 101.934 353.438 102.506 353.017 103.202C352.596 103.897 352.363 104.69 352.342 105.503C352.321 106.316 352.512 107.12 352.897 107.836C353.281 108.552 353.846 109.156 354.535 109.586V114.598C354.535 114.923 354.599 115.244 354.723 115.544C354.847 115.844 355.028 116.117 355.257 116.346C355.487 116.576 355.759 116.758 356.058 116.882C356.358 117.006 356.678 117.07 357.003 117.07C357.657 117.07 358.285 116.81 358.748 116.346C359.21 115.883 359.47 115.254 359.47 114.598V109.586C360.141 109.167 360.695 108.585 361.079 107.892C361.462 107.2 361.664 106.421 361.664 105.63Z" fill="#3F3D56"/>
<path d="M140.009 262.762H132.551V263.696H140.009V262.762Z" fill="#3F3D56"/>
<path d="M150.265 262.762H142.806V263.696H150.265V262.762Z" fill="#3F3D56"/>
<path d="M160.52 262.762H153.062V263.696H160.52V262.762Z" fill="#3F3D56"/>
<path d="M170.775 262.762H163.317V263.696H170.775V262.762Z" fill="#3F3D56"/>
<path d="M181.031 262.762H173.572V263.696H181.031V262.762Z" fill="#3F3D56"/>
<path d="M276.824 315.062H58.1996C57.7052 315.061 57.2312 314.864 56.8817 314.514C56.5321 314.164 56.3355 313.689 56.335 313.194V206.727C56.3355 206.232 56.5321 205.757 56.8817 205.407C57.2312 205.056 57.7052 204.859 58.1996 204.859H276.824C277.319 204.859 277.793 205.056 278.142 205.407C278.492 205.757 278.689 206.231 278.689 206.727V313.194C278.689 313.689 278.492 314.164 278.142 314.514C277.793 314.864 277.319 315.061 276.824 315.062ZM58.1996 206.727V313.194H276.826L276.824 206.727H58.1996Z" fill="#3F3D56"/>
<path d="M67.9888 222.604C69.5335 222.604 70.7857 221.349 70.7857 219.802C70.7857 218.254 69.5335 217 67.9888 217C66.4441 217 65.1919 218.254 65.1919 219.802C65.1919 221.349 66.4441 222.604 67.9888 222.604Z" fill="#3F3D56"/>
<path d="M77.7779 222.604C79.3226 222.604 80.5748 221.349 80.5748 219.802C80.5748 218.254 79.3226 217 77.7779 217C76.2332 217 74.981 218.254 74.981 219.802C74.981 221.349 76.2332 222.604 77.7779 222.604Z" fill="#3F3D56"/>
<path d="M87.5669 222.604C89.1116 222.604 90.3638 221.349 90.3638 219.802C90.3638 218.254 89.1116 217 87.5669 217C86.0222 217 84.77 218.254 84.77 219.802C84.77 221.349 86.0222 222.604 87.5669 222.604Z" fill="#3F3D56"/>
<path d="M188.256 269.3H125.325C124.954 269.299 124.599 269.151 124.337 268.889C124.075 268.626 123.927 268.27 123.927 267.899V252.022C123.927 251.651 124.075 251.294 124.337 251.032C124.599 250.769 124.954 250.621 125.325 250.621H188.256C188.626 250.621 188.982 250.769 189.244 251.032C189.506 251.294 189.654 251.651 189.654 252.022V267.899C189.654 268.27 189.506 268.626 189.244 268.889C188.982 269.151 188.626 269.299 188.256 269.3ZM125.325 251.555C125.202 251.555 125.083 251.604 124.996 251.692C124.908 251.779 124.859 251.898 124.859 252.022V267.899C124.859 268.022 124.908 268.141 124.996 268.229C125.083 268.316 125.202 268.365 125.325 268.366H188.256C188.379 268.365 188.498 268.316 188.585 268.229C188.673 268.141 188.722 268.022 188.722 267.899V252.022C188.722 251.898 188.673 251.779 188.585 251.692C188.498 251.604 188.379 251.555 188.256 251.555H125.325Z" fill="#3F3D56"/>
<path d="M204.105 269.766C208.739 269.766 212.496 266.003 212.496 261.361C212.496 256.719 208.739 252.956 204.105 252.956C199.471 252.956 195.714 256.719 195.714 261.361C195.714 266.003 199.471 269.766 204.105 269.766Z" fill="#3A7D44"/>
<path d="M206.902 268.832C205.15 268.832 203.438 268.312 201.981 267.337C200.525 266.362 199.389 264.977 198.719 263.355C198.049 261.734 197.873 259.95 198.215 258.229C198.557 256.508 199.4 254.927 200.639 253.687C201.878 252.446 203.456 251.601 205.174 251.258C206.892 250.916 208.673 251.092 210.291 251.763C211.91 252.435 213.293 253.572 214.266 255.031C215.239 256.49 215.759 258.205 215.759 259.96C215.756 262.312 214.822 264.568 213.162 266.231C211.501 267.894 209.25 268.83 206.902 268.832ZM206.902 252.022C205.334 252.022 203.802 252.487 202.499 253.36C201.196 254.232 200.18 255.472 199.58 256.922C198.981 258.373 198.824 259.969 199.129 261.509C199.435 263.049 200.19 264.463 201.298 265.573C202.407 266.684 203.819 267.44 205.356 267.746C206.893 268.052 208.486 267.895 209.934 267.294C211.382 266.693 212.62 265.676 213.491 264.37C214.362 263.065 214.826 261.53 214.826 259.96C214.824 257.855 213.988 255.838 212.503 254.349C211.017 252.861 209.003 252.024 206.902 252.022Z" fill="#3F3D56"/>
<path d="M207.026 263.274L202.514 258.753L203.832 257.432L206.778 260.383L214.997 248.682L216.522 249.758L207.026 263.274Z" fill="#3F3D56"/>
<path opacity="0.1" d="M202.198 146.783H18.9214V23.7903L202.198 146.783Z" fill="black"/>
<path d="M269.877 144.362H246.895V142.703C246.895 142.66 246.887 142.617 246.87 142.577C246.854 142.537 246.829 142.501 246.799 142.471C246.768 142.44 246.732 142.416 246.692 142.399C246.653 142.383 246.61 142.374 246.567 142.374H238.687C238.644 142.374 238.601 142.383 238.561 142.399C238.522 142.416 238.485 142.44 238.455 142.471C238.425 142.501 238.4 142.537 238.384 142.577C238.367 142.617 238.359 142.66 238.359 142.703V144.362H233.434V142.703C233.434 142.66 233.426 142.617 233.409 142.577C233.393 142.537 233.368 142.501 233.338 142.471C233.307 142.44 233.271 142.416 233.231 142.399C233.192 142.383 233.149 142.374 233.106 142.374H225.226C225.183 142.374 225.14 142.383 225.1 142.399C225.061 142.416 225.024 142.44 224.994 142.471C224.963 142.501 224.939 142.537 224.923 142.577C224.906 142.617 224.898 142.66 224.898 142.703V144.362H219.973V142.703C219.973 142.66 219.965 142.617 219.948 142.577C219.932 142.537 219.907 142.501 219.877 142.471C219.846 142.44 219.81 142.416 219.77 142.399C219.731 142.383 219.688 142.374 219.645 142.374H211.765C211.722 142.374 211.679 142.383 211.639 142.399C211.6 142.416 211.563 142.44 211.533 142.471C211.502 142.501 211.478 142.537 211.462 142.577C211.445 142.617 211.437 142.66 211.437 142.703V144.362H206.512V142.703C206.512 142.66 206.504 142.617 206.487 142.577C206.471 142.537 206.446 142.501 206.416 142.471C206.385 142.44 206.349 142.416 206.309 142.399C206.269 142.383 206.227 142.374 206.184 142.374H198.304C198.261 142.374 198.218 142.383 198.178 142.399C198.139 142.416 198.102 142.44 198.072 142.471C198.041 142.501 198.017 142.537 198.001 142.577C197.984 142.617 197.976 142.66 197.976 142.703V144.362H193.051V142.703C193.051 142.66 193.042 142.617 193.026 142.577C193.009 142.537 192.985 142.501 192.955 142.471C192.924 142.44 192.888 142.416 192.848 142.399C192.808 142.383 192.766 142.374 192.723 142.374H184.843C184.8 142.374 184.757 142.383 184.717 142.399C184.678 142.416 184.641 142.44 184.611 142.471C184.58 142.501 184.556 142.537 184.54 142.577C184.523 142.617 184.515 142.66 184.515 142.703V144.362H179.59V142.703C179.59 142.66 179.581 142.617 179.565 142.577C179.548 142.537 179.524 142.501 179.494 142.471C179.463 142.44 179.427 142.416 179.387 142.399C179.347 142.383 179.305 142.374 179.262 142.374H171.382C171.339 142.374 171.296 142.383 171.256 142.399C171.216 142.416 171.18 142.44 171.15 142.471C171.119 142.501 171.095 142.537 171.079 142.577C171.062 142.617 171.054 142.66 171.054 142.703V144.362H166.129V142.703C166.129 142.66 166.12 142.617 166.104 142.577C166.087 142.537 166.063 142.501 166.033 142.471C166.002 142.44 165.966 142.416 165.926 142.399C165.886 142.383 165.844 142.374 165.801 142.374H104.077C104.034 142.374 103.991 142.383 103.951 142.399C103.911 142.416 103.875 142.44 103.845 142.471C103.814 142.501 103.79 142.537 103.773 142.577C103.757 142.617 103.748 142.66 103.748 142.703V144.362H98.8237V142.703C98.8237 142.66 98.8152 142.617 98.7987 142.577C98.7822 142.537 98.758 142.501 98.7275 142.471C98.697 142.44 98.6609 142.416 98.621 142.399C98.5812 142.383 98.5385 142.374 98.4954 142.374H90.6158C90.5726 142.374 90.5299 142.383 90.4901 142.399C90.4503 142.416 90.4141 142.44 90.3836 142.471C90.3531 142.501 90.3289 142.537 90.3124 142.577C90.2959 142.617 90.2874 142.66 90.2874 142.703V144.362H85.3627V142.703C85.3627 142.66 85.3542 142.617 85.3377 142.577C85.3212 142.537 85.297 142.501 85.2665 142.471C85.236 142.44 85.1998 142.416 85.16 142.399C85.1202 142.383 85.0775 142.374 85.0343 142.374H77.1547C77.1116 142.374 77.0689 142.383 77.0291 142.399C76.9892 142.416 76.953 142.44 76.9226 142.471C76.8921 142.501 76.8679 142.537 76.8514 142.577C76.8349 142.617 76.8264 142.66 76.8264 142.703V144.362H71.9016V142.703C71.9016 142.66 71.8931 142.617 71.8766 142.577C71.8601 142.537 71.836 142.501 71.8055 142.471C71.775 142.44 71.7388 142.416 71.699 142.399C71.6591 142.383 71.6164 142.374 71.5733 142.374H63.6937C63.6506 142.374 63.6079 142.383 63.568 142.399C63.5282 142.416 63.492 142.44 63.4615 142.471C63.4311 142.501 63.4069 142.537 63.3904 142.577C63.3739 142.617 63.3654 142.66 63.3654 142.703V144.362H58.4406V142.703C58.4406 142.66 58.4321 142.617 58.4156 142.577C58.3991 142.537 58.3749 142.501 58.3444 142.471C58.3139 142.44 58.2778 142.416 58.2379 142.399C58.1981 142.383 58.1554 142.374 58.1123 142.374H50.2326C50.1895 142.374 50.1468 142.383 50.107 142.399C50.0672 142.416 50.031 142.44 50.0005 142.471C49.97 142.501 49.9458 142.537 49.9293 142.577C49.9128 142.617 49.9043 142.66 49.9043 142.703V144.362H44.9796V142.703C44.9796 142.66 44.9711 142.617 44.9546 142.577C44.9381 142.537 44.9139 142.501 44.8834 142.471C44.8529 142.44 44.8167 142.416 44.7769 142.399C44.7371 142.383 44.6944 142.374 44.6513 142.374H36.7716C36.7285 142.374 36.6858 142.383 36.646 142.399C36.6061 142.416 36.5699 142.44 36.5395 142.471C36.509 142.501 36.4848 142.537 36.4683 142.577C36.4518 142.617 36.4433 142.66 36.4433 142.703V144.362H31.5185V142.703C31.5185 142.66 31.51 142.617 31.4935 142.577C31.477 142.537 31.4528 142.501 31.4224 142.471C31.3919 142.44 31.3557 142.416 31.3158 142.399C31.276 142.383 31.2333 142.374 31.1902 142.374H23.3106C23.2675 142.374 23.2248 142.383 23.1849 142.399C23.1451 142.416 23.1089 142.44 23.0784 142.471C23.0479 142.501 23.0237 142.537 23.0072 142.577C22.9907 142.617 22.9823 142.66 22.9823 142.703V144.362H7.87963C6.84486 144.362 5.82023 144.566 4.86422 144.963C3.90822 145.359 3.03958 145.941 2.30789 146.674C1.5762 147.407 0.995788 148.277 0.599799 149.235C0.203811 150.192 -6.12158e-07 151.219 0 152.255V155.824C4.94524e-06 157.918 0.83018 159.925 2.3079 161.406C3.78561 162.886 5.78982 163.718 7.87963 163.718H269.877C270.912 163.718 271.937 163.514 272.893 163.117C273.849 162.72 274.717 162.139 275.449 161.406C276.181 160.673 276.761 159.803 277.157 158.845C277.553 157.887 277.757 156.861 277.757 155.824V152.255C277.757 151.219 277.553 150.192 277.157 149.235C276.761 148.277 276.181 147.407 275.449 146.674C274.717 145.941 273.849 145.359 272.893 144.963C271.937 144.566 270.912 144.362 269.877 144.362Z" fill="#3F3D56"/>
<path d="M198.045 101.661H74.981C74.6102 101.66 74.2547 101.513 73.9926 101.25C73.7304 100.987 73.5829 100.631 73.5825 100.26V48.894C73.5829 48.5226 73.7304 48.1665 73.9926 47.9039C74.2547 47.6413 74.6102 47.4936 74.981 47.4932H198.045C198.416 47.4936 198.771 47.6413 199.033 47.9039C199.296 48.1665 199.443 48.5226 199.443 48.894V100.26C199.443 100.631 199.296 100.987 199.033 101.25C198.771 101.513 198.416 101.66 198.045 101.661ZM74.981 48.4271C74.8574 48.4272 74.7389 48.4765 74.6515 48.564C74.5641 48.6516 74.515 48.7703 74.5148 48.894V100.26C74.515 100.384 74.5641 100.502 74.6515 100.59C74.7389 100.677 74.8574 100.727 74.981 100.727H198.045C198.169 100.727 198.287 100.677 198.374 100.59C198.462 100.502 198.511 100.384 198.511 100.26V48.894C198.511 48.7703 198.462 48.6516 198.374 48.564C198.287 48.4765 198.169 48.4272 198.045 48.4271H74.981Z" fill="#3F3D56"/>
<path d="M88.9654 77.3787H83.3716C83.0008 77.3783 82.6454 77.2306 82.3832 76.9679C82.121 76.7053 81.9735 76.3492 81.9731 75.9778V70.3743C81.9735 70.0029 82.121 69.6468 82.3832 69.3841C82.6454 69.1215 83.0008 68.9738 83.3716 68.9734H88.9654C89.3362 68.9738 89.6917 69.1215 89.9538 69.3841C90.216 69.6468 90.3635 70.0029 90.3639 70.3743V75.9778C90.3635 76.3492 90.216 76.7053 89.9538 76.9679C89.6917 77.2306 89.3362 77.3783 88.9654 77.3787ZM83.3716 69.9073C83.248 69.9075 83.1295 69.9567 83.0422 70.0443C82.9548 70.1318 82.9056 70.2505 82.9054 70.3743V75.9778C82.9056 76.1016 82.9548 76.2203 83.0422 76.3078C83.1295 76.3954 83.248 76.4446 83.3716 76.4448H88.9654C89.089 76.4446 89.2075 76.3954 89.2949 76.3078C89.3822 76.2203 89.4314 76.1016 89.4316 75.9778V70.3743C89.4314 70.2505 89.3822 70.1318 89.2949 70.0443C89.2075 69.9567 89.089 69.9075 88.9654 69.9073H83.3716Z" fill="#3F3D56"/>
<path d="M188.722 76.4446H82.4395V77.3785H188.722V76.4446Z" fill="#3F3D56"/>
<path d="M465.15 125.943H123.461V126.877H465.15V125.943Z" fill="#3F3D56"/>
<path d="M123.461 132.48C127.065 132.48 129.987 129.553 129.987 125.942C129.987 122.332 127.065 119.405 123.461 119.405C119.856 119.405 116.935 122.332 116.935 125.942C116.935 129.553 119.856 132.48 123.461 132.48Z" fill="#3F3D56"/>
<path d="M465.15 132.013C467.982 132.013 470.278 129.713 470.278 126.877C470.278 124.04 467.982 121.74 465.15 121.74C462.318 121.74 460.022 124.04 460.022 126.877C460.022 129.713 462.318 132.013 465.15 132.013Z" fill="#3F3D56"/>
<path d="M490.322 235.211C493.154 235.211 495.45 232.912 495.45 230.075C495.45 227.238 493.154 224.938 490.322 224.938C487.49 224.938 485.194 227.238 485.194 230.075C485.194 232.912 487.49 235.211 490.322 235.211Z" fill="#3F3D56"/>
<path d="M150.031 235.211C152.863 235.211 155.159 232.912 155.159 230.075C155.159 227.238 152.863 224.938 150.031 224.938C147.2 224.938 144.904 227.238 144.904 230.075C144.904 232.912 147.2 235.211 150.031 235.211Z" fill="#3F3D56"/>
</g>
<defs>
<clipPath id="clip0_435_324">
<rect width="513" height="323" fill="white"/>
</clipPath>
</defs>
</svg>
