<svg width="34" height="33" viewBox="0 0 34 33" fill="none" xmlns="http://www.w3.org/2000/svg">
<path d="M30.5004 2.91663L27.5004 5.83329M27.5004 5.83329L32.0004 10.2083L26.7504 15.3125L22.2504 10.9375M27.5004 5.83329L22.2504 10.9375M16.0854 16.9312C16.8599 17.6742 17.4756 18.5588 17.897 19.534C18.3185 20.5093 18.5373 21.556 18.541 22.6138C18.5446 23.6716 18.333 24.7197 17.9183 25.6977C17.5036 26.6757 16.894 27.5643 16.1246 28.3123C15.3553 29.0603 14.4413 29.6529 13.4354 30.0561C12.4294 30.4593 11.3514 30.665 10.2634 30.6615C9.17531 30.6579 8.09873 30.4452 7.0956 30.0354C6.09247 29.6257 5.18261 29.0271 4.41841 28.2741C2.91561 26.7614 2.08405 24.7353 2.10285 22.6323C2.12165 20.5292 2.98929 18.5175 4.51891 17.0304C6.04853 15.5432 8.11773 14.6997 10.2809 14.6814C12.444 14.6632 14.5279 15.4716 16.0839 16.9327L16.0854 16.9312ZM16.0854 16.9312L22.2504 10.9375" stroke="#1E1E1E" stroke-width="4" stroke-linecap="round" stroke-linejoin="round"/>
</svg>
