<svg width="671" height="537" viewBox="0 0 671 537" fill="none" xmlns="http://www.w3.org/2000/svg">
<path d="M582.435 317.567C582.435 312.753 580.878 308.847 578.968 308.838H58.088C56.1687 308.847 54.6212 312.753 54.6125 317.567V515.719C54.6132 516.166 54.4533 516.597 54.1641 516.928C53.8748 517.259 53.4771 517.467 53.0486 517.509C51.6509 517.649 50.2529 517.778 48.8547 517.898C48.8201 517.898 48.7855 517.907 48.7509 517.907C47.9901 517.979 47.2293 518.033 46.4685 518.096H46.4599C46.0685 517.344 45.6818 516.586 45.2997 515.821C45.1703 515.563 45.1027 515.277 45.1025 514.987V306.242C45.1025 304.913 45.1544 303.575 45.2409 302.255C45.3643 300.442 45.5807 298.638 45.8893 296.849C47.3504 288.506 50.6529 282.857 54.4051 282.839H582.642C583.19 282.843 583.731 282.962 584.233 283.189C584.97 283.528 585.637 284.013 586.195 284.617C586.953 285.436 587.602 286.357 588.123 287.356C589.973 290.742 591.296 295.789 591.763 301.662C591.763 301.716 591.772 301.77 591.772 301.824C591.893 303.279 591.953 304.761 591.944 306.242L592.065 325.488L592.143 336.965L592.377 372.978L592.463 385.766L592.844 517.063C592.844 517.539 592.661 517.996 592.337 518.333C592.013 518.67 591.573 518.859 591.115 518.859H584.164C583.705 518.859 583.265 518.67 582.941 518.333C582.617 517.996 582.435 517.539 582.435 517.063V317.567Z" fill="#E6E6E6"/>
<path d="M440.895 192.785H384.77C383.976 192.786 383.215 193.114 382.654 193.698C382.093 194.282 381.779 195.073 381.779 195.898V287.998H443.893V195.897C443.893 195.488 443.816 195.083 443.665 194.705C443.515 194.328 443.294 193.984 443.015 193.695C442.737 193.406 442.406 193.177 442.043 193.02C441.679 192.864 441.289 192.784 440.895 192.785ZM413.02 245.111C411.265 245.103 409.584 244.375 408.343 243.086C407.101 241.796 406.401 240.05 406.393 238.227V227.608C406.393 225.782 407.091 224.031 408.334 222.74C409.577 221.449 411.263 220.723 413.02 220.723C414.778 220.723 416.464 221.449 417.707 222.74C418.95 224.031 419.648 225.782 419.648 227.608V238.231C419.639 240.054 418.938 241.799 417.697 243.087C416.456 244.376 414.775 245.103 413.02 245.111Z" fill="#2F2E41"/>
<path d="M381.586 285.052V293.938C381.587 294.398 381.763 294.84 382.077 295.165C382.39 295.491 382.815 295.674 383.258 295.675H442.414C442.857 295.672 443.281 295.489 443.594 295.163C443.907 294.838 444.084 294.398 444.086 293.938V285.052H381.586Z" fill="#3F3D56"/>
<path d="M533.834 49.053H293.923C291.862 49.0563 289.886 49.9084 288.428 51.4224C286.971 52.9364 286.151 54.989 286.147 57.1302V225.303C286.149 227.445 286.969 229.499 288.426 231.013C289.884 232.528 291.861 233.379 293.923 233.381H533.834C535.896 233.379 537.873 232.528 539.331 231.013C540.789 229.499 541.609 227.445 541.61 225.303V57.1302C541.607 54.989 540.787 52.9364 539.329 51.4224C537.872 49.9084 535.896 49.0563 533.834 49.053Z" fill="#3F3D56"/>
<path d="M531.831 54.8869H295.923C294.819 54.8895 293.762 55.3467 292.982 56.1582C292.203 56.9696 291.765 58.0691 291.765 59.2156V223.22C291.766 224.365 292.205 225.463 292.985 226.272C293.764 227.082 294.821 227.538 295.923 227.54H531.831C532.934 227.538 533.99 227.082 534.77 226.272C535.549 225.463 535.988 224.365 535.99 223.22V59.212C535.99 58.0655 535.552 56.9658 534.772 56.1543C533.993 55.3428 532.935 54.8857 531.831 54.8833V54.8869Z" fill="white"/>
<path d="M485.88 298.768H345.528C345.144 298.768 344.764 298.679 344.418 298.507C344.071 298.336 343.765 298.086 343.523 297.776C343.281 297.467 343.109 297.105 343.019 296.717C342.928 296.329 342.922 295.925 343.001 295.535L345.179 284.79C345.303 284.189 345.622 283.651 346.081 283.263C346.541 282.876 347.114 282.663 347.705 282.661H483.703C484.294 282.663 484.868 282.876 485.327 283.263C485.787 283.651 486.105 284.189 486.229 284.79L488.407 295.535C488.486 295.925 488.48 296.329 488.389 296.717C488.299 297.105 488.127 297.467 487.885 297.776C487.643 298.086 487.337 298.336 486.99 298.507C486.644 298.679 486.265 298.768 485.88 298.768Z" fill="#2F2E41"/>
<path d="M352.603 284.594H349.124C348.891 284.594 348.702 284.791 348.702 285.033V286.85C348.702 287.092 348.891 287.289 349.124 287.289H352.603C352.836 287.289 353.025 287.092 353.025 286.85V285.033C353.025 284.791 352.836 284.594 352.603 284.594Z" fill="#3F3D56"/>
<path d="M361.248 284.594H357.77C357.537 284.594 357.348 284.791 357.348 285.033V286.85C357.348 287.092 357.537 287.289 357.77 287.289H361.248C361.481 287.289 361.67 287.092 361.67 286.85V285.033C361.67 284.791 361.481 284.594 361.248 284.594Z" fill="#3F3D56"/>
<path d="M369.894 284.594H366.415C366.182 284.594 365.993 284.791 365.993 285.033V286.85C365.993 287.092 366.182 287.289 366.415 287.289H369.894C370.127 287.289 370.316 287.092 370.316 286.85V285.033C370.316 284.791 370.127 284.594 369.894 284.594Z" fill="#3F3D56"/>
<path d="M378.539 284.594H375.061C374.828 284.594 374.639 284.791 374.639 285.033V286.85C374.639 287.092 374.828 287.289 375.061 287.289H378.539C378.773 287.289 378.961 287.092 378.961 286.85V285.033C378.961 284.791 378.773 284.594 378.539 284.594Z" fill="#3F3D56"/>
<path d="M387.185 284.594H383.706C383.473 284.594 383.284 284.791 383.284 285.033V286.85C383.284 287.092 383.473 287.289 383.706 287.289H387.185C387.418 287.289 387.607 287.092 387.607 286.85V285.033C387.607 284.791 387.418 284.594 387.185 284.594Z" fill="#3F3D56"/>
<path d="M395.831 284.594H392.352C392.119 284.594 391.93 284.791 391.93 285.033V286.85C391.93 287.092 392.119 287.289 392.352 287.289H395.831C396.064 287.289 396.252 287.092 396.252 286.85V285.033C396.252 284.791 396.064 284.594 395.831 284.594Z" fill="#3F3D56"/>
<path d="M404.476 284.594H400.997C400.764 284.594 400.575 284.791 400.575 285.033V286.85C400.575 287.092 400.764 287.289 400.997 287.289H404.476C404.709 287.289 404.898 287.092 404.898 286.85V285.033C404.898 284.791 404.709 284.594 404.476 284.594Z" fill="#3F3D56"/>
<path d="M413.122 284.594H409.643C409.41 284.594 409.221 284.791 409.221 285.033V286.85C409.221 287.092 409.41 287.289 409.643 287.289H413.122C413.355 287.289 413.543 287.092 413.543 286.85V285.033C413.543 284.791 413.355 284.594 413.122 284.594Z" fill="#3F3D56"/>
<path d="M421.767 284.594H418.288C418.055 284.594 417.866 284.791 417.866 285.033V286.85C417.866 287.092 418.055 287.289 418.288 287.289H421.767C422 287.289 422.189 287.092 422.189 286.85V285.033C422.189 284.791 422 284.594 421.767 284.594Z" fill="#3F3D56"/>
<path d="M430.413 284.594H426.934C426.701 284.594 426.512 284.791 426.512 285.033V286.85C426.512 287.092 426.701 287.289 426.934 287.289H430.413C430.646 287.289 430.834 287.092 430.834 286.85V285.033C430.834 284.791 430.646 284.594 430.413 284.594Z" fill="#3F3D56"/>
<path d="M439.058 284.594H435.579C435.346 284.594 435.157 284.791 435.157 285.033V286.85C435.157 287.092 435.346 287.289 435.579 287.289H439.058C439.291 287.289 439.48 287.092 439.48 286.85V285.033C439.48 284.791 439.291 284.594 439.058 284.594Z" fill="#3F3D56"/>
<path d="M447.704 284.594H444.225C443.992 284.594 443.803 284.791 443.803 285.033V286.85C443.803 287.092 443.992 287.289 444.225 287.289H447.704C447.937 287.289 448.125 287.092 448.125 286.85V285.033C448.125 284.791 447.937 284.594 447.704 284.594Z" fill="#3F3D56"/>
<path d="M456.349 284.594H452.87C452.637 284.594 452.448 284.791 452.448 285.033V286.85C452.448 287.092 452.637 287.289 452.87 287.289H456.349C456.582 287.289 456.771 287.092 456.771 286.85V285.033C456.771 284.791 456.582 284.594 456.349 284.594Z" fill="#3F3D56"/>
<path d="M464.995 284.594H461.516C461.283 284.594 461.094 284.791 461.094 285.033V286.85C461.094 287.092 461.283 287.289 461.516 287.289H464.995C465.228 287.289 465.416 287.092 465.416 286.85V285.033C465.416 284.791 465.228 284.594 464.995 284.594Z" fill="#3F3D56"/>
<path d="M473.639 284.594H470.16C469.927 284.594 469.738 284.791 469.738 285.033V286.85C469.738 287.092 469.927 287.289 470.16 287.289H473.639C473.872 287.289 474.061 287.092 474.061 286.85V285.033C474.061 284.791 473.872 284.594 473.639 284.594Z" fill="#3F3D56"/>
<path d="M482.285 284.594H478.806C478.573 284.594 478.384 284.791 478.384 285.033V286.85C478.384 287.092 478.573 287.289 478.806 287.289H482.285C482.518 287.289 482.707 287.092 482.707 286.85V285.033C482.707 284.791 482.518 284.594 482.285 284.594Z" fill="#3F3D56"/>
<path d="M352.501 289.085H349.022C348.789 289.085 348.601 289.281 348.601 289.523V291.341C348.601 291.583 348.789 291.779 349.022 291.779H352.501C352.734 291.779 352.923 291.583 352.923 291.341V289.523C352.923 289.281 352.734 289.085 352.501 289.085Z" fill="#3F3D56"/>
<path d="M361.147 289.085H357.668C357.435 289.085 357.246 289.281 357.246 289.523V291.341C357.246 291.583 357.435 291.779 357.668 291.779H361.147C361.38 291.779 361.569 291.583 361.569 291.341V289.523C361.569 289.281 361.38 289.085 361.147 289.085Z" fill="#3F3D56"/>
<path d="M369.792 289.085H366.313C366.08 289.085 365.892 289.281 365.892 289.523V291.341C365.892 291.583 366.08 291.779 366.313 291.779H369.792C370.025 291.779 370.214 291.583 370.214 291.341V289.523C370.214 289.281 370.025 289.085 369.792 289.085Z" fill="#3F3D56"/>
<path d="M378.438 289.085H374.959C374.726 289.085 374.537 289.281 374.537 289.523V291.341C374.537 291.583 374.726 291.779 374.959 291.779H378.438C378.671 291.779 378.86 291.583 378.86 291.341V289.523C378.86 289.281 378.671 289.085 378.438 289.085Z" fill="#3F3D56"/>
<path d="M387.083 289.085H383.605C383.372 289.085 383.183 289.281 383.183 289.523V291.341C383.183 291.583 383.372 291.779 383.605 291.779H387.083C387.316 291.779 387.505 291.583 387.505 291.341V289.523C387.505 289.281 387.316 289.085 387.083 289.085Z" fill="#3F3D56"/>
<path d="M395.729 289.085H392.25C392.017 289.085 391.828 289.281 391.828 289.523V291.341C391.828 291.583 392.017 291.779 392.25 291.779H395.729C395.962 291.779 396.151 291.583 396.151 291.341V289.523C396.151 289.281 395.962 289.085 395.729 289.085Z" fill="#3F3D56"/>
<path d="M404.373 289.085H400.895C400.662 289.085 400.473 289.281 400.473 289.523V291.341C400.473 291.583 400.662 291.779 400.895 291.779H404.373C404.606 291.779 404.795 291.583 404.795 291.341V289.523C404.795 289.281 404.606 289.085 404.373 289.085Z" fill="#3F3D56"/>
<path d="M413.019 289.085H409.54C409.307 289.085 409.118 289.281 409.118 289.523V291.341C409.118 291.583 409.307 291.779 409.54 291.779H413.019C413.252 291.779 413.441 291.583 413.441 291.341V289.523C413.441 289.281 413.252 289.085 413.019 289.085Z" fill="#3F3D56"/>
<path d="M421.664 289.085H418.186C417.953 289.085 417.764 289.281 417.764 289.523V291.341C417.764 291.583 417.953 291.779 418.186 291.779H421.664C421.898 291.779 422.086 291.583 422.086 291.341V289.523C422.086 289.281 421.898 289.085 421.664 289.085Z" fill="#3F3D56"/>
<path d="M430.31 289.085H426.831C426.598 289.085 426.409 289.281 426.409 289.523V291.341C426.409 291.583 426.598 291.779 426.831 291.779H430.31C430.543 291.779 430.732 291.583 430.732 291.341V289.523C430.732 289.281 430.543 289.085 430.31 289.085Z" fill="#3F3D56"/>
<path d="M438.956 289.085H435.477C435.244 289.085 435.055 289.281 435.055 289.523V291.341C435.055 291.583 435.244 291.779 435.477 291.779H438.956C439.189 291.779 439.377 291.583 439.377 291.341V289.523C439.377 289.281 439.189 289.085 438.956 289.085Z" fill="#3F3D56"/>
<path d="M447.601 289.085H444.122C443.889 289.085 443.7 289.281 443.7 289.523V291.341C443.7 291.583 443.889 291.779 444.122 291.779H447.601C447.834 291.779 448.023 291.583 448.023 291.341V289.523C448.023 289.281 447.834 289.085 447.601 289.085Z" fill="#3F3D56"/>
<path d="M456.247 289.085H452.768C452.535 289.085 452.346 289.281 452.346 289.523V291.341C452.346 291.583 452.535 291.779 452.768 291.779H456.247C456.48 291.779 456.668 291.583 456.668 291.341V289.523C456.668 289.281 456.48 289.085 456.247 289.085Z" fill="#3F3D56"/>
<path d="M464.892 289.085H461.413C461.18 289.085 460.991 289.281 460.991 289.523V291.341C460.991 291.583 461.18 291.779 461.413 291.779H464.892C465.125 291.779 465.314 291.583 465.314 291.341V289.523C465.314 289.281 465.125 289.085 464.892 289.085Z" fill="#3F3D56"/>
<path d="M473.538 289.085H470.059C469.826 289.085 469.637 289.281 469.637 289.523V291.341C469.637 291.583 469.826 291.779 470.059 291.779H473.538C473.771 291.779 473.959 291.583 473.959 291.341V289.523C473.959 289.281 473.771 289.085 473.538 289.085Z" fill="#3F3D56"/>
<path d="M482.183 289.085H478.704C478.471 289.085 478.282 289.281 478.282 289.523V291.341C478.282 291.583 478.471 291.779 478.704 291.779H482.183C482.416 291.779 482.605 291.583 482.605 291.341V289.523C482.605 289.281 482.416 289.085 482.183 289.085Z" fill="#3F3D56"/>
<path d="M424.259 294.473H390.521C390.288 294.473 390.099 294.669 390.099 294.911V296.729C390.099 296.971 390.288 297.167 390.521 297.167H424.259C424.492 297.167 424.68 296.971 424.68 296.729V294.911C424.68 294.669 424.492 294.473 424.259 294.473Z" fill="#3F3D56"/>
<path d="M515.585 503.737L508.919 492.61L507.588 498.969C507.354 500.082 507.121 501.214 506.905 502.336C505.011 500.657 502.997 499.103 501.026 497.613C494.974 493.051 488.925 488.482 482.879 483.908L484.772 495.314C485.939 502.336 487.158 509.503 490.046 515.924C490.366 516.652 490.712 517.37 491.083 518.071H519.216C519.442 517.42 519.598 516.745 519.683 516.059C519.69 516.014 519.693 515.969 519.691 515.924C520.132 511.567 517.815 507.464 515.585 503.737Z" fill="#F0F0F0"/>
<path d="M164.58 503.737L157.914 492.61L156.583 498.969C156.349 500.082 156.116 501.214 155.9 502.336C154.006 500.657 151.992 499.103 150.021 497.613C143.969 493.051 137.92 488.482 131.874 483.908L133.767 495.314C134.935 502.336 136.154 509.503 139.041 515.924C139.361 516.652 139.707 517.37 140.079 518.071H168.211C168.437 517.42 168.594 516.745 168.678 516.059C168.685 516.014 168.688 515.969 168.686 515.924C169.127 511.567 166.81 507.464 164.58 503.737Z" fill="#F0F0F0"/>
<path d="M669.941 519.29L431.543 519.566C431.275 519.558 431.021 519.442 430.834 519.242C430.647 519.042 430.543 518.775 430.543 518.497C430.543 518.218 430.647 517.951 430.834 517.751C431.021 517.552 431.275 517.436 431.543 517.428L669.941 517.152C670.209 517.16 670.463 517.276 670.65 517.476C670.836 517.675 670.941 517.943 670.941 518.221C670.941 518.499 670.836 518.767 670.65 518.966C670.463 519.166 670.209 519.282 669.941 519.29Z" fill="#CACACA"/>
<path d="M519.973 77.4832H299.234C299.006 77.4757 298.789 77.3764 298.63 77.2062C298.472 77.0359 298.383 76.8082 298.383 76.5712C298.383 76.3341 298.472 76.1064 298.63 75.9362C298.789 75.7659 299.006 75.6666 299.234 75.6592H519.973C520.201 75.6666 520.417 75.7659 520.576 75.9362C520.735 76.1064 520.823 76.3341 520.823 76.5712C520.823 76.8082 520.735 77.0359 520.576 77.2062C520.417 77.3764 520.201 77.4757 519.973 77.4832Z" fill="#CACACA"/>
<path d="M314.261 71.0045C317.102 71.0045 319.405 68.5586 319.405 65.5415C319.405 62.5244 317.102 60.0786 314.261 60.0786C311.42 60.0786 309.117 62.5244 309.117 65.5415C309.117 68.5586 311.42 71.0045 314.261 71.0045Z" fill="#3F3D56"/>
<path d="M332.032 71.0045C334.873 71.0045 337.176 68.5586 337.176 65.5415C337.176 62.5244 334.873 60.0786 332.032 60.0786C329.191 60.0786 326.888 62.5244 326.888 65.5415C326.888 68.5586 329.191 71.0045 332.032 71.0045Z" fill="#3F3D56"/>
<path d="M349.803 71.0045C352.644 71.0045 354.947 68.5586 354.947 65.5415C354.947 62.5244 352.644 60.0786 349.803 60.0786C346.962 60.0786 344.659 62.5244 344.659 65.5415C344.659 68.5586 346.962 71.0045 349.803 71.0045Z" fill="#3F3D56"/>
<path d="M509.272 61.4321H496.65C496.522 61.4281 496.395 61.4508 496.275 61.4989C496.156 61.547 496.047 61.6195 495.955 61.7121C495.863 61.8047 495.79 61.9155 495.741 62.0379C495.691 62.1604 495.665 62.2919 495.665 62.4249C495.665 62.5578 495.691 62.6895 495.741 62.8119C495.79 62.9343 495.863 63.0451 495.955 63.1377C496.047 63.2303 496.156 63.3028 496.275 63.3509C496.395 63.399 496.522 63.4217 496.65 63.4177H509.272C509.4 63.4217 509.528 63.399 509.647 63.3509C509.766 63.3028 509.875 63.2303 509.967 63.1377C510.059 63.0451 510.132 62.9343 510.182 62.8119C510.232 62.6895 510.257 62.5578 510.257 62.4249C510.257 62.2919 510.232 62.1604 510.182 62.0379C510.132 61.9155 510.059 61.8047 509.967 61.7121C509.875 61.6195 509.766 61.547 509.647 61.4989C509.528 61.4508 509.4 61.4281 509.272 61.4321Z" fill="#3F3D56"/>
<path d="M509.272 65.1589H496.65C496.522 65.1549 496.395 65.1776 496.275 65.2257C496.156 65.2738 496.047 65.3463 495.955 65.4389C495.863 65.5315 495.79 65.6423 495.741 65.7647C495.691 65.8872 495.665 66.0188 495.665 66.1517C495.665 66.2847 495.691 66.4162 495.741 66.5387C495.79 66.6611 495.863 66.7719 495.955 66.8645C496.047 66.9571 496.156 67.0296 496.275 67.0777C496.395 67.1258 496.522 67.1485 496.65 67.1445H509.272C509.4 67.1485 509.528 67.1258 509.647 67.0777C509.766 67.0296 509.875 66.9571 509.967 66.8645C510.059 66.7719 510.132 66.6611 510.182 66.5387C510.232 66.4162 510.257 66.2847 510.257 66.1517C510.257 66.0188 510.232 65.8872 510.182 65.7647C510.132 65.6423 510.059 65.5315 509.967 65.4389C509.875 65.3463 509.766 65.2738 509.647 65.2257C509.528 65.1776 509.4 65.1549 509.272 65.1589Z" fill="#3F3D56"/>
<path d="M509.272 68.8813H496.65C496.522 68.8773 496.395 68.9 496.275 68.9481C496.156 68.9962 496.047 69.0687 495.955 69.1613C495.863 69.2539 495.79 69.3647 495.741 69.4871C495.691 69.6096 495.665 69.7412 495.665 69.8741C495.665 70.0071 495.691 70.1387 495.741 70.2611C495.79 70.3836 495.863 70.4944 495.955 70.5869C496.047 70.6795 496.156 70.752 496.275 70.8001C496.395 70.8482 496.522 70.8709 496.65 70.8669H509.272C509.4 70.8709 509.528 70.8482 509.647 70.8001C509.766 70.752 509.875 70.6795 509.967 70.5869C510.059 70.4944 510.132 70.3836 510.182 70.2611C510.232 70.1387 510.257 70.0071 510.257 69.8741C510.257 69.7412 510.232 69.6096 510.182 69.4871C510.132 69.3647 510.059 69.2539 509.967 69.1613C509.875 69.0687 509.766 68.9962 509.647 68.9481C509.528 68.9 509.4 68.8773 509.272 68.8813Z" fill="#3F3D56"/>
<path d="M427.426 127.162H399.844C397.772 127.162 396.093 128.907 396.093 131.059C396.093 133.211 397.772 134.956 399.844 134.956H427.426C429.498 134.956 431.178 133.211 431.178 131.059C431.178 128.907 429.498 127.162 427.426 127.162Z" fill="#3A7D44"/>
<path d="M445.245 142.75H382.026C379.954 142.75 378.274 144.495 378.274 146.647C378.274 148.799 379.954 150.543 382.026 150.543H445.245C447.316 150.543 448.996 148.799 448.996 146.647C448.996 144.495 447.316 142.75 445.245 142.75Z" fill="#E6E6E6"/>
<path d="M445.245 158.336H382.026C379.954 158.336 378.274 160.08 378.274 162.232C378.274 164.384 379.954 166.129 382.026 166.129H445.245C447.316 166.129 448.996 164.384 448.996 162.232C448.996 160.08 447.316 158.336 445.245 158.336Z" fill="#E6E6E6"/>
<path d="M321.799 218.137C321.804 221.347 321.254 224.532 320.174 227.54H295.923C294.821 227.538 293.764 227.082 292.985 226.272C292.205 225.463 291.766 224.365 291.765 223.22V191.536C293.12 191.309 294.49 191.195 295.863 191.195C302.741 191.195 309.338 194.034 314.202 199.086C319.066 204.139 321.799 210.992 321.799 218.137Z" fill="#E6E6E6"/>
<path d="M239.398 519.29L0.999841 519.566C0.732033 519.558 0.477803 519.442 0.291119 519.242C0.104435 519.042 0 518.775 0 518.497C0 518.218 0.104435 517.951 0.291119 517.751C0.477803 517.552 0.732033 517.436 0.999841 517.428L239.398 517.152C239.536 517.148 239.673 517.172 239.801 517.224C239.93 517.276 240.047 517.354 240.145 517.454C240.244 517.553 240.323 517.673 240.376 517.804C240.43 517.936 240.458 518.078 240.458 518.221C240.458 518.364 240.43 518.506 240.376 518.637C240.323 518.769 240.244 518.888 240.145 518.988C240.047 519.088 239.93 519.166 239.801 519.218C239.673 519.27 239.536 519.294 239.398 519.29Z" fill="#CACACA"/>
<path d="M128.132 32.2971C128.132 32.2971 151.542 14.819 154.468 23.1782C157.395 31.5374 136.91 46.7389 136.91 46.7389L128.132 32.2971Z" fill="#FFB9B9"/>
<path d="M211.163 54.7145C211.163 84.9326 198.638 85.8711 178.235 85.8711C157.832 85.8711 137.275 84.9326 137.275 54.7145C137.275 24.4965 153.816 0 174.219 0C194.622 0 211.163 24.4965 211.163 54.7145Z" fill="#2F2E41"/>
<path d="M161.052 54.3345C161.052 54.3345 163.978 77.1319 150.078 78.6523C136.178 80.1727 195.435 84.7313 195.435 84.7313C195.435 84.7313 180.072 70.2932 188.119 58.894C196.166 47.4949 161.052 54.3345 161.052 54.3345Z" fill="#FFB9B9"/>
<path opacity="0.1" d="M161.052 54.3345C161.052 54.3345 163.978 77.1319 150.078 78.6523C136.178 80.1727 195.435 84.7313 195.435 84.7313C195.435 84.7313 180.072 70.2932 188.119 58.894C196.166 47.4949 161.052 54.3345 161.052 54.3345Z" fill="black"/>
<path d="M87.1642 461.654L82.0436 506.49C82.0436 506.49 56.4392 539.167 72.5336 536.887C88.6279 534.607 98.8693 532.327 98.8693 529.287C98.8693 526.248 101.064 514.089 103.259 514.089C105.453 514.089 105.454 522.448 105.454 522.448C107.964 521.336 110.407 520.067 112.769 518.648C113.501 517.888 114.232 492.051 114.232 492.051C114.232 492.051 116.427 479.132 112.037 473.053C107.647 466.974 108.379 461.654 108.379 461.654H87.1642Z" fill="#090814"/>
<path d="M204.948 458.614C204.948 458.614 202.753 503.449 199.828 505.729C196.902 508.01 188.854 540.686 203.485 536.126C218.117 531.567 224.7 527.007 224.7 523.967C224.7 520.927 224.701 499.65 226.163 495.09C227.626 490.531 226.163 482.171 225.432 481.412C224.7 480.652 223.237 459.374 223.237 459.374L204.948 458.614Z" fill="#090814"/>
<path d="M125.205 194.92C125.205 194.92 101.795 264.071 100.332 279.272C98.8692 294.472 101.795 346.147 101.795 346.147C101.795 346.147 80.5798 463.174 84.969 463.933C89.3583 464.693 109.842 467.733 110.573 463.933C111.305 460.134 114.231 454.814 113.5 452.534C112.768 450.254 115.695 441.895 115.695 437.335C115.695 432.776 129.594 381.101 128.863 377.302C128.131 373.502 141.299 317.268 143.494 312.708C145.689 308.149 151.542 276.232 151.542 276.232C151.542 276.232 184.463 369.703 185.193 371.982C185.924 374.262 188.851 378.061 187.388 378.822C185.925 379.583 189.583 384.901 189.583 384.901C189.583 384.901 202.02 444.173 202.02 445.695C202.02 447.216 200.557 459.373 203.483 460.134C206.408 460.894 224.698 465.453 226.161 460.134C227.625 454.814 217.382 365.904 217.382 365.904C217.382 365.904 204.945 327.148 208.603 317.269C212.261 307.389 204.945 248.118 202.019 243.557C199.092 238.995 198.361 211.639 198.361 211.639L125.205 194.92Z" fill="#090814"/>
<path d="M173.855 66.8741C186.785 66.8741 197.266 55.9866 197.266 42.5563C197.266 29.126 186.785 18.2385 173.855 18.2385C160.926 18.2385 150.445 29.126 150.445 42.5563C150.445 55.9866 160.926 66.8741 173.855 66.8741Z" fill="#FFB9B9"/>
<path d="M161.05 73.3324C161.05 73.3324 187.386 74.0921 188.85 71.8128C190.313 69.5335 226.89 77.1321 226.89 92.3309C226.89 107.53 205.675 166.804 205.675 166.804C205.675 166.804 197.628 209.359 199.823 213.919C202.018 218.478 118.619 204.04 120.814 196.441C123.009 188.841 135.446 172.123 119.352 157.685C103.257 143.247 96.6729 128.049 96.6729 128.049L115.693 75.6143C115.693 75.6143 134.713 72.5744 139.103 75.6143C143.493 78.6543 161.05 73.3324 161.05 73.3324Z" fill="#3A7D44"/>
<path d="M101.795 131.847L96.6743 128.047C96.6743 128.047 49.1243 76.3722 61.5591 66.4926C73.9938 56.613 92.285 47.495 101.064 46.7352C109.842 45.9755 117.158 39.1358 117.158 39.1358C117.158 39.1358 126.668 21.6577 133.984 33.0568C141.3 44.4559 149.347 48.2556 139.104 52.0554C128.862 55.8551 122.279 54.3347 117.158 58.1344C112.037 61.9341 92.285 68.0131 101.064 70.2932C106.097 71.5607 110.998 73.3424 115.694 75.6125L125.204 93.0906L101.795 131.847Z" fill="#3A7D44"/>
<path d="M184.461 260.274C184.461 260.274 165.441 289.151 179.34 287.631C193.24 286.111 199.824 266.353 199.824 266.353L184.461 260.274Z" fill="#FFB9B9"/>
<path d="M221.773 88.531L226.893 92.3307C226.893 92.3307 243.719 188.081 226.893 213.159C210.068 238.236 208.605 236.716 208.605 236.716C208.605 236.716 205.678 234.436 204.216 249.635C202.753 264.834 204.947 270.913 200.558 270.913C196.168 270.913 176.416 266.353 177.879 262.553C179.342 258.754 188.853 236.716 189.584 231.397C190.315 226.078 193.973 213.919 195.437 207.079C196.901 200.239 188.853 196.44 192.51 182.002C196.168 167.563 201.289 141.725 201.289 136.406C201.289 131.087 221.773 88.531 221.773 88.531Z" fill="#3A7D44"/>
<path d="M196.533 20.9006C196.533 29.0846 185.726 35.7186 172.392 35.7186C159.057 35.7186 146.789 40.1012 146.789 31.9171C146.789 23.7331 159.06 6.07983 172.393 6.07983C185.726 6.07983 196.533 12.7138 196.533 20.9006Z" fill="#090814"/>
<path d="M137.495 59.8433C137.495 59.8433 136.509 87.3914 162.863 85.8718C189.217 84.3523 159.302 62.3237 159.302 62.3237L137.495 59.8433Z" fill="#2F2E41"/>
<path d="M213.448 355.679H148.325C146.579 355.677 144.906 354.956 143.672 353.674C142.437 352.392 141.743 350.653 141.741 348.84V286.943C141.743 285.13 142.437 283.391 143.672 282.109C144.906 280.827 146.579 280.106 148.325 280.104H213.451C215.196 280.106 216.87 280.827 218.104 282.109C219.338 283.391 220.033 285.13 220.034 286.943V348.84C220.033 350.654 219.338 352.393 218.103 353.675C216.868 354.957 215.194 355.678 213.448 355.679Z" fill="#3F3D56"/>
<path d="M208.87 349.98H152.9C151.35 349.978 149.865 349.338 148.769 348.199C147.673 347.061 147.057 345.518 147.055 343.908V291.876C147.057 290.266 147.673 288.723 148.769 287.585C149.865 286.446 151.35 285.806 152.9 285.804H208.87C210.42 285.806 211.906 286.446 213.002 287.585C214.097 288.723 214.714 290.266 214.716 291.876V343.908C214.714 345.518 214.097 347.061 213.002 348.199C211.906 349.338 210.42 349.978 208.87 349.98Z" fill="white"/>
<path d="M203.287 300.953H158.484C158.096 300.953 157.724 300.793 157.45 300.508C157.176 300.224 157.022 299.838 157.022 299.435C157.022 299.033 157.176 298.647 157.45 298.362C157.724 298.077 158.096 297.917 158.484 297.917H203.287C203.674 297.917 204.046 298.077 204.32 298.362C204.594 298.647 204.748 299.033 204.748 299.435C204.748 299.838 204.594 300.224 204.32 300.508C204.046 300.793 203.674 300.953 203.287 300.953Z" fill="#3A7D44"/>
<path d="M203.287 306.95H158.484C158.096 306.95 157.724 306.79 157.45 306.505C157.176 306.221 157.022 305.835 157.022 305.432C157.022 305.03 157.176 304.644 157.45 304.359C157.724 304.074 158.096 303.915 158.484 303.915H203.287C203.674 303.915 204.046 304.074 204.32 304.359C204.594 304.644 204.748 305.03 204.748 305.432C204.748 305.835 204.594 306.221 204.32 306.505C204.046 306.79 203.674 306.95 203.287 306.95Z" fill="#3A7D44"/>
<path d="M177.905 312.947H158.484C158.096 312.947 157.724 312.787 157.45 312.503C157.176 312.218 157.022 311.832 157.022 311.43C157.022 311.027 157.176 310.641 157.45 310.356C157.724 310.072 158.096 309.912 158.484 309.912H177.905C178.292 309.912 178.664 310.072 178.938 310.356C179.212 310.641 179.366 311.027 179.366 311.43C179.366 311.832 179.212 312.218 178.938 312.503C178.664 312.787 178.292 312.947 177.905 312.947Z" fill="#3A7D44"/>
<path d="M203.287 325.51H158.484C158.096 325.51 157.724 325.35 157.45 325.065C157.176 324.78 157.022 324.394 157.022 323.992C157.022 323.589 157.176 323.203 157.45 322.919C157.724 322.634 158.096 322.474 158.484 322.474H203.287C203.674 322.474 204.046 322.634 204.32 322.919C204.594 323.203 204.748 323.589 204.748 323.992C204.748 324.394 204.594 324.78 204.32 325.065C204.046 325.35 203.674 325.51 203.287 325.51Z" fill="#E4E4E4"/>
<path d="M203.287 331.507H158.484C158.096 331.507 157.724 331.347 157.45 331.062C157.176 330.777 157.022 330.391 157.022 329.989C157.022 329.586 157.176 329.2 157.45 328.916C157.724 328.631 158.096 328.471 158.484 328.471H203.287C203.674 328.471 204.046 328.631 204.32 328.916C204.594 329.2 204.748 329.586 204.748 329.989C204.748 330.391 204.594 330.777 204.32 331.062C204.046 331.347 203.674 331.507 203.287 331.507Z" fill="#E4E4E4"/>
<path d="M177.905 337.504H158.484C158.096 337.504 157.724 337.344 157.45 337.059C157.176 336.775 157.022 336.389 157.022 335.986C157.022 335.584 157.176 335.198 157.45 334.913C157.724 334.628 158.096 334.469 158.484 334.469H177.905C178.292 334.469 178.664 334.628 178.938 334.913C179.212 335.198 179.366 335.584 179.366 335.986C179.366 336.389 179.212 336.775 178.938 337.059C178.664 337.344 178.292 337.504 177.905 337.504Z" fill="#E4E4E4"/>
</svg>
