<svg width="40" height="38" viewBox="0 0 40 38" fill="none" xmlns="http://www.w3.org/2000/svg">
<g clip-path="url(#clip0_52_78)">
<path d="M40 18.9632C40 23.9722 37.8929 28.7761 34.1421 32.318C30.3914 35.8599 25.3043 37.8498 20 37.8498C14.6957 37.8498 9.60859 35.8599 5.85786 32.318C2.10714 28.7761 0 23.9722 0 18.9632C0 13.9542 2.10714 9.15032 5.85786 5.6084C9.60859 2.06649 14.6957 0.0766602 20 0.0766602C25.3043 0.0766602 30.3914 2.06649 34.1421 5.6084C37.8929 9.15032 40 13.9542 40 18.9632ZM20.7175 14.0197C18.7708 14.7846 14.8825 16.3663 9.0525 18.7649C8.1075 19.119 7.61167 19.4669 7.565 19.8084C7.49 20.3821 8.2525 20.6087 9.29 20.918L9.7275 21.0478C10.7475 21.3618 12.1225 21.7277 12.835 21.7419C13.485 21.7576 14.2083 21.5058 15.005 20.9864C20.4533 17.5145 23.265 15.7596 23.44 15.7218C23.565 15.6935 23.74 15.6604 23.855 15.7596C23.97 15.8587 23.96 16.0429 23.9475 16.0925C23.8725 16.397 20.88 19.0222 19.3325 20.3821C18.85 20.807 18.5075 21.1068 18.4375 21.1753C18.2834 21.3241 18.1267 21.4705 17.9675 21.6144C17.0175 22.4785 16.3075 23.1253 18.005 24.183C18.8225 24.6929 19.4775 25.1108 20.13 25.531C20.84 25.989 21.55 26.4447 22.47 27.016C22.7033 27.1608 22.9283 27.3079 23.145 27.4574C23.9725 28.0146 24.72 28.5151 25.6375 28.4348C26.1725 28.3876 26.725 27.9154 27.005 26.499C27.6675 23.1537 28.97 15.9083 29.27 12.9219C29.2889 12.6736 29.2779 12.4242 29.2375 12.1782C29.2133 11.9799 29.1116 11.7973 28.9525 11.6659C28.7247 11.5182 28.4538 11.4415 28.1775 11.4464C27.4275 11.4582 26.27 11.8383 20.7175 14.0197Z" fill="white"/>
</g>
<defs>
<clipPath id="clip0_52_78">
<rect width="40" height="37.7731" fill="white" transform="translate(0 0.0766602)"/>
</clipPath>
</defs>
</svg>
