<svg width="40" height="40" viewBox="0 0 40 40" fill="none" xmlns="http://www.w3.org/2000/svg">
<path d="M39.4353 5.15758C38.2859 7.21525 36.9536 8.8871 35.4385 10.1731V11.5235C35.4385 14.7386 34.9422 18.0019 33.9495 21.3135C32.9569 24.625 31.5071 27.6151 29.6001 30.2836C27.6931 32.9522 25.329 35.1384 22.5078 36.8424C19.6865 38.5464 16.4473 39.3984 12.7901 39.3984C10.4913 39.3984 8.32315 39.0126 6.28557 38.241C4.248 37.4694 2.34104 36.3762 0.564697 34.9616C0.87817 35.0259 1.19164 35.0741 1.50512 35.1063C1.81859 35.1384 2.13206 35.1545 2.44553 35.1545C4.32637 35.1545 6.11578 34.7687 7.81375 33.9971C9.51173 33.2254 11.0399 32.1966 12.3983 30.9106C10.6219 30.8463 9.06764 30.1872 7.73538 28.9333C6.40313 27.6794 5.47577 26.0558 4.95331 24.0624C5.21454 24.191 5.46271 24.2553 5.69781 24.2553H6.44231C7.17375 24.2553 7.85294 24.1588 8.47988 23.9659C6.65129 23.4515 5.13617 22.3102 3.93453 20.5419C2.73288 18.7735 2.13206 16.6998 2.13206 14.3206V14.2242C2.70676 14.5457 3.28146 14.819 3.85616 15.044C4.43086 15.2691 5.05781 15.3816 5.737 15.3816C4.69209 14.4814 3.8431 13.3239 3.19003 11.9093C2.53696 10.4947 2.21043 8.9514 2.21043 7.27955C2.21043 5.47909 2.57615 3.83939 3.30758 2.36044C5.29291 5.31834 7.6962 7.71359 10.5175 9.5462C13.3387 11.3788 16.3951 12.3916 19.6865 12.5845C19.5298 11.8128 19.4514 11.0734 19.4514 10.3661C19.4514 9.01571 19.6604 7.74574 20.0784 6.55615C20.4963 5.36656 21.071 4.32165 21.8025 3.42143C22.5339 2.5212 23.3829 1.81387 24.3494 1.29946C25.316 0.78504 26.3478 0.527832 27.445 0.527832C28.5944 0.527832 29.6654 0.801116 30.6581 1.34768C31.6507 1.89425 32.5128 2.6498 33.2442 3.61433C34.1846 3.42143 35.0728 3.11599 35.9087 2.69803C36.7447 2.28006 37.5545 1.78172 38.3382 1.203C37.7112 3.58218 36.5357 5.41479 34.8116 6.70083C36.4834 6.37932 38.0247 5.8649 39.4353 5.15758Z" fill="white"/>
</svg>
